<svg enable-background="new -822 823.1 56.7 56.7" height="56.7" viewBox="-822 823.1 56.7 56.7" width="56.7" xmlns="http://www.w3.org/2000/svg"><path d="m-770.9 859.5h-2.7v1.2h2.7c.9 0 1.6-.3 1.9-.7.2-.3.3-.6.3-1.1s-.1-.8-.3-1.1c0 0-.1-.1-.1-.1-.3-.3-.8-.5-1.6-.5h-.8c-.2 0-.4 0-.5-.1-.2-.1-.3-.2-.3-.4s.1-.3.2-.4.3-.1.6-.1h2.5v-29.5h-49.6v20.9l1.7-3.9h3.6l.5 1v-1h4.3l.9 2.1.9-2.1h13.5c.6 0 1.2.1 1.6.5v-.5h3.7v.5c.6-.3 1.4-.5 2.3-.5h5.4l.5 1v-1h4l.5 1v-1h3.9v8.1h-3.9l-.7-1.2v1.2h-4.9l-.5-1.3h-1.2l-.5 1.3h-2.5c-1 0-1.7-.2-2.2-.5v.5h-6v-1.8c0-.3 0-.3-.2-.3h-.2v2.1h-11.6v-1l-.4 1h-2.4l-.4-1v1h-4.7l-.5-1.3h-1.2l-.5 1.3h-2.4v24.6h49.6v-14.9c-.6.3-1.3.4-2 .4h-3.6v-.5c-.4.3-1.2.5-1.9.5h-11.4v-1.9c0-.2 0-.2-.3-.2h-.2v2.1h-3.7v-2.2c-.6.3-1.3.3-1.9.3h-.4v1.9h-4.5l-1.1-1.3-1.2 1.3h-7.4v-8.1h7.5l1.1 1.2 1.2-1.2h5c.6 0 1.5.1 2 .5v-.5h4.5c.4 0 1.3.1 1.9.5v-.5h6.8v.5c.3-.3 1.1-.5 1.7-.5h3.8v.5c.4-.3 1-.5 1.7-.5h2.6v1.2h-2.8c-1.5 0-2 .9-2 1.7 0 1.8 1.6 1.8 2.9 1.8.2 0 .4 0 .5.1s.2.2.2.4-.1.3-.2.4c-.6.1-.8.1-1.1.1z"/><path d="m-785.3 856.5c0-.7-.3-1-.7-1.3-.5-.2-1-.3-1.7-.3h-3.2v5.8h1.4v-2.1h1.5c.5 0 .8 0 1 .3.3.3.2.8.2 1.1v.7h1.4v-1.2c0-.5 0-.8-.2-1.1-.1-.2-.4-.4-.7-.5.4 0 1-.5 1-1.4zm-1.8.8c-.2.1-.4.1-.7.1h-1.7v-1.3h1.7c.2 0 .5 0 .7.1s.3.3.3.5c0 .3-.1.5-.3.6z"/><path d="m-793.9 854.9h-4.5l-1.8 1.9-1.7-1.9h-5.6v5.8h5.5l1.8-1.9 1.7 1.9h2.7v-2h1.7c1.2 0 2.4-.3 2.4-2 .2-1.4-1.1-1.8-2.2-1.8zm-8.7 4.7h-3.4v-1.2h3.1v-1.2h-3.1v-1.1h3.5l1.5 1.7zm5.5.6-2.1-2.4 2.1-2.3zm3.2-2.6h-1.8v-1.5h1.8c.5 0 .9.2.9.7 0 .6-.4.8-.9.8z"/><path d="m-785.4 846.2h1.3v-1.2h-1.3c-1 0-1.7.2-2.1.7-.6.6-.8 1.4-.8 2.3 0 1.1.3 1.7.7 2.2.5.5 1.3.6 2 .6h1.6l.5-1.3h2.9l.5 1.3h2.8v-4.4l2.6 4.4h2v-5.8h-1.4v4.1l-2.4-4.1h-2.1v5.5l-2.4-5.5h-2.1l-2 4.6h-.6c-.4 0-.8-.1-1-.3-.3-.3-.4-.7-.4-1.4 0-.6.2-1.1.4-1.3.5-.4.8-.4 1.3-.4zm3.4-.3 1 2.3h-1.9z"/><path d="m-776.3 859.5h-2.7v1.2h2.7c1.4 0 2.2-.6 2.2-1.8 0-.6-.1-1-.4-1.2-.3-.3-.8-.5-1.6-.5h-.7c-.2 0-.4 0-.5-.1-.2-.1-.3-.2-.3-.4s.1-.3.2-.4.3-.1.6-.1h2.6v-1.2h-2.8c-1.5 0-2 .9-2 1.7 0 1.8 1.6 1.8 2.9 1.8.2 0 .4 0 .5.1s.2.2.2.4-.1.3-.2.4c-.3.1-.5.1-.7.1z"/><path d="m-813.6 849.4.5 1.3h2.8v-4.6l2 4.6h1.2l2-4.6v4.6h1.4v-5.8h-2.3l-1.7 4-1.8-4h-2.3v5.5l-2.4-5.5h-2.1l-2.5 5.8h1.5l.5-1.3zm-1.4-3.5 1 2.3h-1.9z"/><path d="m-791.2 846.5c0-.7-.3-1-.7-1.3-.5-.3-1-.3-1.7-.3h-3.2v5.8h1.4v-2.1h1.5c.5 0 .8 0 1 .2.3.3.2.8.2 1.1v.7h1.4v-1.1c0-.5 0-.8-.2-1.1-.1-.2-.4-.4-.7-.5.3 0 1-.5 1-1.4zm-1.9.8c-.2.1-.4.1-.7.1h-1.7v-1.3h1.7c.2 0 .5 0 .7.1s.3.3.3.5c0 .3-.1.5-.3.6z"/><path d="m-790.4 844.9h1.4v5.8h-1.4z"/><path d="m-779.9 856.2v-1.3h-4.6v5.9h4.6v-1.2h-3.2v-1.2h3.2v-1.2h-3.2v-1z"/><path d="m-797.8 846.1v-1.2h-4.7v5.8h4.7v-1.2h-3.3v-1.1h3.2v-1.2h-3.2v-1.1z"/></svg>