<svg enable-background="new 0 0 32 32" viewBox="0 0 32 32" xmlns="http://www.w3.org/2000/svg"><path d="m21.7 23h.3c2.2 0 4-1.8 4-4h-.1-9.9v-15h-1v15h-9.9-.1c0 .9.3 1.7.8 2.3 3.7-1.8 7.6-2 11.5.2 1.5.9 2.9 1.4 4.4 1.5zm4.3-5h-9v-9zm-18-8.5c-3 5-3 8.5-3 8.5h9s-1-1.5-1-6 1-8 1-8-3 .5-6 5.5zm-5 15.5c.4-.3.9-.6 1.4-.9 4-2.4 8.4-3 12.8-.5 4 2.3 7.8 1.8 11.1-.5.6-.4 1.2-.9 1.7-1.3v1.3c-.3.3-.7.5-1.1.8-3.6 2.4-7.8 3-12.2.5-4-2.3-8.1-1.8-11.8.5-.7.4-1.4.9-1.9 1.3v-1.2zm3 1.2c3.6-1.7 7.4-1.8 11.2.3 3.5 2 6.8 1.8 9.8.3v1.2c-3.1 1.4-6.6 1.5-10.2-.6s-7.3-1.8-10.8-.1z" fill="#4dbdc0"/></svg>