<?xml version="1.0" encoding="utf-8"?>
<!-- Generator: Adobe Illustrator 22.1.0, SVG Export Plug-In . SVG Version: 6.00 Build 0)  -->
<svg version="1.1" id="Calque_1" xmlns="http://www.w3.org/2000/svg" xmlns:xlink="http://www.w3.org/1999/xlink" x="0px" y="0px"
	 viewBox="0 0 48 48" style="enable-background:new 0 0 48 48;" xml:space="preserve">
<style type="text/css">
	.st0{fill:#4A898B;}
</style>
<title></title>
<desc></desc>
<g id="Page-1">
	<g id="Artboard-Copy" transform="translate(-347.000000, -189.000000)">
		<path id="location1" class="st0" d="M371.8,229.8c-0.1,0.1-0.1,0.2-0.2,0.2c-0.5,0.3-1.1,0.2-1.4-0.2l0,0
			c-2.5-3.5-4.3-6.1-5.3-7.8c-4.6-7.2-6.9-12.6-6.9-16.1c0-7.2,5.8-13,13-13s13,5.8,13,13c0,3.5-2.3,8.8-6.9,16.1
			C376.1,223.7,374.3,226.3,371.8,229.8z M371,213c4.4,0,8-3.6,8-8s-3.6-8-8-8s-8,3.6-8,8S366.6,213,371,213z M371,210
			c-2.8,0-5-2.2-5-5s2.2-5,5-5s5,2.2,5,5S373.8,210,371,210z"/>
		<g id="slices" transform="translate(47.000000, 9.000000)">
		</g>
	</g>
</g>
</svg>
