<svg enable-background="new 0 0 64 64" viewBox="0 0 64 64" xmlns="http://www.w3.org/2000/svg"><circle cx="32" cy="32" fill="#4dbdc0" r="32"/><path d="m49 26h-34c-1.7 0-3 1.3-3 3l4 18c0 1.7 1.3 3 3 3h26c1.7 0 3-1.3 3-3l4-18c0-1.7-1.3-3-3-3zm-25 19c0 1.1-.9 2-2 2s-2-.9-2-2v-6c0-1.1.9-2 2-2s2 .9 2 2zm10 0c0 1.1-.9 2-2 2s-2-.9-2-2v-6c0-1.1.9-2 2-2s2 .9 2 2zm10 0c0 1.1-.9 2-2 2s-2-.9-2-2v-6c0-1.1.9-2 2-2s2 .9 2 2z" fill="#231f20" opacity=".2"/><path d="m49 24h-34c-1.7 0-3 1.3-3 3l4 18c0 1.7 1.3 3 3 3h26c1.7 0 3-1.3 3-3l4-18c0-1.7-1.3-3-3-3zm-25 19c0 1.1-.9 2-2 2s-2-.9-2-2v-6c0-1.1.9-2 2-2s2 .9 2 2zm10 0c0 1.1-.9 2-2 2s-2-.9-2-2v-6c0-1.1.9-2 2-2s2 .9 2 2zm10 0c0 1.1-.9 2-2 2s-2-.9-2-2v-6c0-1.1.9-2 2-2s2 .9 2 2z" fill="#4a898b"/><path d="m56 28c0 1.1-.9 2-2 2h-44c-1.1 0-2-.9-2-2 0-1.1.9-2 2-2h44c1.1 0 2 .9 2 2z" fill="#231f20" opacity=".2"/><path d="m56 26c0 1.1-.9 2-2 2h-44c-1.1 0-2-.9-2-2 0-1.1.9-2 2-2h44c1.1 0 2 .9 2 2z" fill="#4a898b"/><path d="m42.8 15.2c.8.8.8 2 0 2.8l-11.4 15.4c-.8.8-2 .8-2.8 0-.8-.8-.8-2 0-2.8l11.4-15.4c.8-.8 2-.8 2.8 0z" fill="#231f20" opacity=".2"/><path d="m42.8 13.2c.8.8.8 2 0 2.8l-11.4 15.4c-.8.8-2 .8-2.8 0-.8-.8-.8-2 0-2.8l11.4-15.4c.8-.8 2-.8 2.8 0z" fill="#4a898b"/></svg>