<?xml version="1.0" encoding="utf-8"?>
<!-- Generator: Adobe Illustrator 22.1.0, SVG Export Plug-In . SVG Version: 6.00 Build 0)  -->
<svg version="1.1" id="Layer_1" xmlns="http://www.w3.org/2000/svg" xmlns:xlink="http://www.w3.org/1999/xlink" x="0px" y="0px"
	 viewBox="0 0 48 48" style="enable-background:new 0 0 48 48;" xml:space="preserve">
<style type="text/css">
	.st0{fill:#4A898B;}
</style>
<g id="Layer_3">
	<g>
		<path class="st0" d="M23.3,30.5c-0.9,0-1.6,0.2-2.1,0.7c-0.5,0.5-0.7,1.1-0.7,2c0,0.8,0.2,1.5,0.7,2c0.5,0.5,1.2,0.7,2,0.7
			c0.9,0,1.5-0.2,2-0.7c0.5-0.5,0.7-1.1,0.7-2c0-0.9-0.2-1.5-0.7-2C24.8,30.7,24.1,30.5,23.3,30.5z"/>
		<path class="st0" d="M29.3,13.7c-1.3-1-3-1.6-5.1-1.6c-2.6,0-5.1,0.7-7.4,2l1.7,3.4c2-1,3.8-1.5,5.4-1.5c0.9,0,1.6,0.2,2.1,0.5
			c0.5,0.4,0.8,0.9,0.8,1.6c0,0.6-0.2,1.2-0.5,1.6c-0.4,0.5-1.1,1.1-2.2,1.9c-1.1,0.8-1.9,1.6-2.4,2.4c-0.4,0.7-0.6,1.6-0.6,2.6v1.2
			h4.2v-0.9c0-0.6,0.1-1.1,0.4-1.5c0.3-0.4,0.9-1,1.9-1.7c1.5-1,2.5-2,3-2.8c0.5-0.8,0.8-1.8,0.8-3C31.2,16.1,30.6,14.7,29.3,13.7z"
			/>
		<path class="st0" d="M24,0C10.7,0,0,10.7,0,24s10.7,24,24,24s24-10.7,24-24S37.3,0,24,0z M24,44C13,44,4,35,4,24C4,13,13,4,24,4
			s20,9,20,20C44,35,35,44,24,44z"/>
	</g>
</g>
</svg>
