<svg enable-background="new 0 0 48 48" viewBox="0 0 48 48" xmlns="http://www.w3.org/2000/svg"><g fill="#4a898b"><path d="m23.3 30.5c-.9 0-1.6.2-2.1.7s-.7 1.1-.7 2c0 .8.2 1.5.7 2s1.2.7 2 .7c.9 0 1.5-.2 2-.7s.7-1.1.7-2-.2-1.5-.7-2c-.4-.5-1.1-.7-1.9-.7z"/><path d="m29.3 13.7c-1.3-1-3-1.6-5.1-1.6-2.6 0-5.1.7-7.4 2l1.7 3.4c2-1 3.8-1.5 5.4-1.5.9 0 1.6.2 2.1.5.5.4.8.9.8 1.6 0 .6-.2 1.2-.5 1.6-.4.5-1.1 1.1-2.2 1.9s-1.9 1.6-2.4 2.4c-.4.7-.6 1.6-.6 2.6v1.2h4.2v-.9c0-.6.1-1.1.4-1.5s.9-1 1.9-1.7c1.5-1 2.5-2 3-2.8s.8-1.8.8-3c-.2-1.8-.8-3.2-2.1-4.2z"/><path d="m24 0c-13.3 0-24 10.7-24 24s10.7 24 24 24 24-10.7 24-24-10.7-24-24-24zm0 44c-11 0-20-9-20-20s9-20 20-20 20 9 20 20-9 20-20 20z"/></g></svg>