<svg enable-background="new 0 0 67.5 68.2" viewBox="0 0 67.5 68.2" xmlns="http://www.w3.org/2000/svg"><path d="m27.5 52.4c-.8 0-1.6-.3-2.1-.8l-11.5-10.9c-1.3-1.2-1.3-3.2-.1-4.4 1.2-1.3 3.2-1.3 4.4-.1l9.1 8.6 21.1-23.3c1.2-1.3 3.1-1.4 4.4-.2s1.4 3.1.2 4.4l-23.2 25.6c-.6.6-1.4 1-2.2 1 0 .1-.1.1-.1.1z" fill="#f8f8f8" stroke="#fafafa" stroke-miterlimit="10"/><path d="m64.4 68.2h-61.3c-1.7 0-3.1-1.4-3.1-3.1v-62c0-1.7 1.4-3.1 3.1-3.1h61.2c1.7 0 3.1 1.4 3.1 3.1v62c.1 1.7-1.3 3.1-3 3.1zm-58.2-6.2h55v-55.8h-55z" fill="none"/></svg>