<svg enable-background="new 0 0 24 24" viewBox="0 0 24 24" xmlns="http://www.w3.org/2000/svg"><g fill="#4a898b"><path d="m12 3.4c.7 0 1.3.4 1.9 1.3l7.1 11.8c1 1.7.2 3.1-1.7 3.1h-14.5c-2 0-2.8-1.4-1.7-3.1l7.1-11.8c.5-.9 1.1-1.3 1.8-1.3m0-2.4c-1.6 0-3 .9-3.9 2.4l-7.1 11.9c-.9 1.6-1 3.2-.3 4.6s2.3 2.1 4.1 2.1h14.4c1.8 0 3.3-.8 4.1-2.1s.7-3-.3-4.6l-7.1-11.9c-.9-1.5-2.3-2.4-3.9-2.4z"/><circle cx="12" cy="16" r="1.3"/><path d="m13.5 10c0-.8-.7-1.5-1.5-1.5s-1.5.7-1.5 1.5c0 .2 0 .4.1.6.6 1.3 1.4 3.4 1.4 3.4s.8-2.1 1.4-3.4c.1-.2.1-.4.1-.6z"/></g></svg>