<?xml version="1.0" ?><svg enable-background="new 0 0 100 100" version="1.1" viewBox="0 0 100 100" xml:space="preserve" xmlns="http://www.w3.org/2000/svg" xmlns:xlink="http://www.w3.org/1999/xlink"><g id="Layer_3"><g><rect fill="#DD4C2A" height="1.763" transform="matrix(-0.3306 0.9438 -0.9438 -0.3306 91.0477 -15.2974)" width="39.593" x="31.153" y="23.761"/><path d="M56.968,6.305l0.72,0.252L44.931,42.98l-0.72-0.252L56.968,6.305 M56.355,5.03L42.936,43.341l2.607,0.913    L58.962,5.944L56.355,5.03L56.355,5.03z" fill="#191919"/></g><g><path d="M36.479,94.5c-0.218,0-0.399-0.17-0.414-0.387l-4.132-62.996c-0.008-0.116,0.032-0.226,0.111-0.311    c0.079-0.085,0.187-0.131,0.303-0.131h35.306c0.116,0,0.224,0.046,0.303,0.131c0.079,0.084,0.119,0.195,0.111,0.311l-4.132,62.996    C63.92,94.33,63.739,94.5,63.521,94.5H36.479z" fill="#DD4C2A"/><path d="M67.562,31.175L63.441,94H36.559l-4.121-62.825H67.562 M67.653,30.175H32.347    c-0.529,0-0.947,0.447-0.913,0.975l4.132,62.996C35.598,94.626,35.997,95,36.479,95h27.042c0.482,0,0.881-0.374,0.913-0.855    l4.132-62.996C68.6,30.622,68.182,30.175,67.653,30.175L67.653,30.175z" fill="#191919"/></g><g><polygon fill="#EFEFEF" points="40.026,27.847 40.475,26.44 59.525,26.44 59.974,27.847   "/><path d="M59.159,26.94l0.13,0.407H40.711l0.13-0.407H59.159 M59.89,25.94H40.11l-0.767,2.407h21.315L59.89,25.94    L59.89,25.94z" fill="#191919"/></g><g><polygon fill="#EFEFEF" points="28.902,31.829 30.152,27.91 69.848,27.91 71.098,31.829   "/><path d="M69.483,28.41l0.931,2.92H29.587l0.931-2.92H69.483 M70.213,27.41H29.787l-1.569,4.92h43.564L70.213,27.41    L70.213,27.41z" fill="#191919"/></g></g></svg>