<?xml version="1.0" encoding="utf-8"?>
<!-- Generator: Adobe Illustrator 22.1.0, SVG Export Plug-In . SVG Version: 6.00 Build 0)  -->
<svg version="1.1" id="Слой_1" xmlns="http://www.w3.org/2000/svg" xmlns:xlink="http://www.w3.org/1999/xlink" x="0px" y="0px"
	 viewBox="0 0 128 128" style="enable-background:new 0 0 128 128;" xml:space="preserve">
<style type="text/css">
	.st0{fill:#4A898B;}
</style>
<title></title>
<path class="st0" d="M127.4,95.6c-0.8-0.8-2-0.8-2.8,0c-0.1,0-4.4,4.3-13.6,5V86.9c10.8-1.3,16.5-12.5,16.8-13
	c0.5-1,0.2-2.2-0.8-2.7c-1-0.5-2.2-0.2-2.7,0.8c0,0,0,0.1-0.1,0.1c0,0.1-4.8,9.4-13.2,10.7V26c0-1.1-0.9-2-2-2c0,0-0.1,0-0.1,0
	l-94,5c-1.1,0.1-1.9,0.9-1.9,2v40c-3.3,0.4-6.4,1.7-9,3.8c-2.7,2.3-4.1,5.7-4,9.2c0,8.4,7.6,11.3,13,11.9v6.1c0,1,0.8,1.9,1.8,2
	l94,9h0.2c0.5,0,1-0.2,1.3-0.5c0.4-0.4,0.7-0.9,0.7-1.5v-6.4c10.8-0.7,16.1-5.9,16.4-6.2C128.2,97.6,128.2,96.4,127.4,95.6z
	 M107,28.1v9L60.6,65.4c-2.1,1.3-4.9,1.2-6.9-0.2L17,39v-6.1L107,28.1z M17,43.9l34.4,24.6c3.4,2.4,7.8,2.5,11.3,0.4L107,41.8v58.9
	c-1.9-0.1-3.8-0.3-5.7-0.6c-11.1-2-23.3-7.6-36.2-13.6C50.9,79.8,36.2,73,22.3,71c-1.7-0.2-3.5-0.3-5.3-0.3V43.9z M4,84
	c-0.1-2.3,0.8-4.6,2.6-6.2c1.9-1.5,4.1-2.4,6.4-2.7v16.8C9.8,91.4,4,89.8,4,84z M17,100.2V74.7c1.6,0,3.2,0.1,4.7,0.3
	c13.3,1.9,27.7,8.6,41.7,15c13.2,6.1,25.7,11.9,37.2,13.9c2.1,0.4,4.2,0.6,6.3,0.7v4.2L17,100.2z"/>
</svg>
