<?xml version="1.0" encoding="utf-8"?>
<!-- Generator: Adobe Illustrator 22.1.0, SVG Export Plug-In . SVG Version: 6.00 Build 0)  -->
<svg version="1.1" id="Calque_1" xmlns="http://www.w3.org/2000/svg" xmlns:xlink="http://www.w3.org/1999/xlink" x="0px" y="0px"
	 viewBox="0 0 806.3 162" style="enable-background:new 0 0 806.3 162;" xml:space="preserve">
<style type="text/css">
	.st0{fill:#4A898B;}
	.st1{display:none;}
	.st2{display:inline;fill:#6D6F72;}
</style>
<g>
	<g>
		<path class="st0" d="M611,75.2c0.3,8,1,14.6,1.9,19.8c0.5,2.8,1.1,5.1,1.8,6.8c0.7,1.7,1.6,2.6,2.5,2.7c1.6,0.3,3.3-0.7,5.3-3.1
			c1.9-2.3,3.8-5.1,5.7-8.4c2.3-4.1,4.4-8.2,6.2-12.2c1.8-4.1,2.9-6.8,3.4-8c0.3,0.1,0.6,0.2,1,0.3c0.3,0.1,0.6,0.3,1,0.5
			c-0.2,0.5-0.5,1.3-0.9,2.2c-0.4,1-0.9,2.2-1.5,3.6c-1.1,2.5-2.5,5.4-4.1,8.5c-1.6,3.2-3.3,6.2-5.1,9c-1.9,2.8-3.8,5.2-5.7,7.1
			c-1.7,1.6-3.3,2.3-4.9,2.3c-0.3,0-0.6,0-0.9-0.1c-1.6-0.3-3-1.1-4.3-2.4c-1.4-1.3-2.5-3-3.5-5.1c-1.9-3.9-3.3-9-4.3-15
			c-0.9-6.1-1.4-12.6-1.5-19.4v-1.2c0-4.1,0.2-8.2,0.5-12.2c0.3-4.5,0.8-8.8,1.6-12.9c1.2-7.6,3-14,5.4-19.2s5.3-7.8,8.6-8h0.1
			c1.4,0,2.6,0.6,3.6,1.7c1,1.2,1.8,2.8,2.3,4.9c1.1,3.9,1.4,8.9,1,15.1c-0.5,6.2-1.8,12.6-3.9,19c-1.4,4.3-3.2,8.4-5.4,12.4
			c-1.8,3.4-3.9,6.5-6.3,9.3L611,75.2z M617.2,59.6c2.3-5.2,4.1-10.6,5.2-16c1.2-5.2,1.8-10.3,1.9-15c0.1-4.7-0.2-8.5-1.1-11.5
			c-0.4-1.6-0.9-2.7-1.6-3.6c-0.6-0.9-1.5-1.3-2.4-1.3c-1.4,0.1-2.7,1.9-3.8,5.4s-2,8-2.7,13.5c-0.4,3-0.7,6.1-1,9.5
			s-0.5,6.9-0.7,10.5c-0.3,6.3-0.4,12.7-0.3,19C613.3,67.1,615.5,63.6,617.2,59.6z"/>
		<path class="st0" d="M649,10.4c0,2.2-0.4,4.2-1.1,6.1c-0.7,1.9-1.5,3.1-2.4,3.5c-0.2-0.1-0.4-0.2-0.5-0.4
			c-0.1-0.1-0.1-0.3-0.1-0.4c1-0.4,1.7-1.4,2.2-3s0.6-3.1,0.6-4.4c-0.1,0.4-0.3,0.8-0.8,1.2c-0.4,0.4-0.9,0.6-1.5,0.6
			c-0.7,0.1-1.4-0.2-2-0.9c-0.6-0.6-1-1.4-1.1-2.4c0-1.1,0.3-2,1-2.8c0.6-0.8,1.3-1.3,2.2-1.3c0.8,0,1.6,0.4,2.3,1.1
			C648.6,8,649,9,649,10.4z"/>
		<path class="st0" d="M661.9,92c2.1,5.2,4.7,8,7.8,8.5c2.1,0.3,4.2-0.3,6.3-1.7c2.1-1.4,4.1-3.3,6-5.6c2.8-3.5,5.3-7.3,7.5-11.5
			c2.1-4.1,3.6-7.1,4.4-8.9c0.3,0,0.7,0.1,1.1,0.2c0.3,0.1,0.6,0.2,1,0.4c-0.3,0.8-0.8,1.9-1.4,3.2c-0.6,1.4-1.4,2.8-2.1,4.3
			c-1.5,2.9-3.3,5.9-5.3,9c-2.1,3.2-4.3,5.9-6.8,8.1c-1.7,1.4-3.4,2.5-5.1,3.3c-1.4,0.6-2.8,0.9-4.2,0.9h-1.3
			c-4.9-0.6-9.3-3.3-13-8.1c-3.5-4.5-5.2-10.7-5.2-18.6v-1.1c0.1-5.4,1.1-10.3,3-14.8c1.9-4.5,4.4-8,7.4-10.3
			c1.6-1.2,3.4-2.1,5.2-2.5c0.8-0.2,1.7-0.3,2.5-0.3c1,0,2.1,0.2,3.1,0.5c1.7,0.5,3,1.7,4,3.9c1,2.1,1.3,4.5,1,7.4
			c-0.1,1.5-0.5,3-1.1,4.7c-0.6,1.6-1.4,3.2-2.5,4.9c-1.7,2.4-4,4.6-7,6.6c-2.3,1.5-5,2.8-8.1,3.8C659.2,83.1,660.2,87.8,661.9,92z
			 M665.6,73.1c2.8-1.9,5.1-3.9,6.7-6.1c1-1.4,1.9-2.9,2.5-4.4c0.6-1.4,1-2.8,1.3-4.3c0.4-2.5,0.2-4.8-0.5-6.7
			c-0.6-1.9-1.7-3.1-3.1-3.4c-1.2-0.3-2.4-0.2-3.6,0.4c-1.2,0.6-2.3,1.7-3.3,3c-1.9,2.5-3.4,5.8-4.7,10.1c-1.3,4.2-2,8.4-2,12.6v2
			C661.5,75.5,663.8,74.4,665.6,73.1z"/>
		<path class="st0" d="M724.6,67.6c-0.5,0-0.9-0.1-1.1-0.3c-0.2-0.1-0.3-0.4-0.4-0.8c1.9-1.4,2.8-3.8,2.8-7c-0.1-3.2-1-5.8-2.9-8
			c-0.6-0.6-1.3-1.2-2-1.7c-0.8-0.5-1.8-0.7-2.7-0.9c-1.7-0.2-3.3,0-4.8,0.6s-2.9,1.6-4.1,2.7c-2.3,2.2-4.3,5.1-5.9,8.8
			c-1.6,3.8-2.7,7.6-3.3,11.5c-0.2,1.3-0.3,2.8-0.4,4.5c-0.1,1.7-0.1,3.3,0,5c0.1,3.2,0.6,6.1,1.5,8.6c0.8,2.5,2.1,3.9,3.9,4
			c0.8,0.1,1.6-0.3,2.5-1c0.8-0.7,1.7-1.7,2.4-3c1.6-2.3,2.9-5.5,4.1-9.4c1.2-3.9,1.9-8.1,2.1-12.4c0.1-0.6,0.3-1.1,0.6-1.5
			s0.6-0.6,1-0.8c1.1-0.5,2.2-0.2,3.4,0.7c1.2,1,1.8,1.9,1.7,2.9c-0.2,1.8-0.5,4.2-0.9,7.2c-0.3,3-0.6,6.1-0.8,9.3
			c-0.4,4.9-0.5,9.4-0.3,13.5s1,6.3,2.4,6.5c1.5,0.2,3.4-1.5,5.7-5c2.4-3.6,4.8-7.6,7.1-12.1c1.6-3,3-6,4.3-8.9
			c1.4-2.9,2.5-5.4,3.3-7.4c0.3,0.1,0.6,0.3,1,0.4s0.7,0.4,1,0.7c-0.8,2-1.9,4.3-3.1,7c-1.2,2.6-2.5,5.2-3.9,8
			c-2.6,5-5.3,9.4-8.2,13.4c-2.7,3.8-5.1,5.7-7.2,5.7h-0.3c-1.1-0.1-2.1-0.5-2.9-1.3c-0.8-0.7-1.5-1.6-2-2.7
			c-0.6-1.1-1.1-2.4-1.5-3.9c-0.3-1.4-0.6-2.9-0.8-4.5c-0.4-2.9-0.6-5.7-0.6-8.4c0.1-2.7,0.1-4.5,0.1-5.6c-0.2,0.7-0.7,2.1-1.5,4.1
			c-0.8,2.1-1.9,4-3.2,5.8c-0.9,1.2-1.9,2.2-2.9,3s-2,1.2-3,1.2c-1.9-0.1-3.5-0.6-4.9-1.5c-1.3-0.9-2.5-2-3.4-3.4
			c-1.7-2.5-2.8-5.6-3.2-9.2c-0.3-1.7-0.4-3.5-0.4-5.1c0-1.7,0.1-3.3,0.4-5c1-7.4,3.8-13.5,8.3-18.2c3.8-4,8.3-6,13.5-6
			c1,0,2.1,0.1,3.1,0.2c1.6,0.3,3,0.8,4.3,1.7c1.2,0.9,2.1,2,2.9,3.2c1.4,2.3,2,5,1.8,8C727.3,63.5,726.3,65.8,724.6,67.6z"/>
		<path class="st0" d="M750.6,50.4c-0.4,1.6-0.7,4.2-0.9,7.9c-0.2,3.6-0.2,7.4-0.1,11.5c0,2.1,0.1,4.3,0.2,6.5
			c0.1,2.1,0.3,4.2,0.5,6.2c0.5,3.6,1,6.7,1.8,9.1c0.8,2.5,1.7,3.8,2.8,3.9c1.7,0.1,3.6-1.8,5.8-5.5c2.1-3.8,4-8.1,5.6-13.1
			c0.8-2.7,1.6-5.3,2.1-8.1c0.6-2.8,0.9-5.3,1.1-7.7c0.2-0.6,0.4-1.1,0.7-1.5c0.3-0.3,0.6-0.6,1-0.8c1-0.5,2.2-0.2,3.4,0.8
			c1.2,0.9,1.8,1.8,1.7,2.8c-0.3,1.8-0.6,4.5-1,8c-0.5,3.6-0.8,7.3-1.2,11.4l-0.4,6.2c-0.1,2.1-0.2,4.1-0.3,6
			c-0.1,3.5,0.1,6.5,0.4,8.9c0.3,2.4,0.9,3.7,1.8,3.8c1.4,0.2,3.3-1.5,5.7-5c2.4-3.6,4.7-7.6,7-12.1c1.6-3,3-6,4.4-8.9
			c1.3-2.9,2.4-5.4,3.2-7.4c0.3,0.1,0.7,0.3,1.1,0.4c0.3,0.1,0.6,0.4,1,0.7c-0.8,2-1.9,4.3-3.1,7c-1.2,2.6-2.5,5.2-3.9,8
			c-2.6,5-5.3,9.4-8.2,13.4c-2.7,3.8-5.1,5.7-7.1,5.7h-0.3c-0.9-0.1-1.7-0.5-2.4-1c-0.7-0.6-1.4-1.3-1.9-2.2
			c-0.7-1.2-1.3-2.7-1.8-4.5c-0.5-1.7-0.8-3.6-1.1-5.5c-0.5-3.6-0.7-7.1-0.7-10.6c0.1-3.4,0.1-5.8,0-7c-0.1,0.8-0.6,2.6-1.6,5.3
			c-1,2.8-2.4,5.4-4,8c-1,1.7-2.2,3.1-3.4,4.3c-1.2,1.2-2.5,1.7-3.8,1.6c-1.4-0.1-2.6-0.5-3.7-1.5c-1.1-0.8-2.1-2-2.9-3.4
			c-1.2-2-2.1-4.4-2.7-7.3c-0.7-2.9-1.2-5.9-1.6-9c-0.5-3.8-0.7-7.6-0.7-11.3v-1.7c0-3,0.1-5.6,0.2-7.8c0.1-1.4,0.1-2.6,0.2-3.6
			c0.1-1,0.2-1.7,0.3-2c0.9-1.1,2-1.7,3.4-1.7h0.1C748.7,47.6,749.8,48.5,750.6,50.4z"/>
	</g>
	<g>
		<path class="st0" d="M40.4,76.8c-5.2,0.5-9.6-1.9-13-7.4c-3.5-5.4-5.5-12.3-5.9-20.6v-2.2c0-4.3,0.7-8.6,2.1-12.9
			c1.7-4.9,4.1-9,7.4-12.3c1.8-1.7,3.8-3.2,5.9-4.3c2.2-1.2,4.6-1.8,7.1-2c0.6-0.1,1.3-0.1,1.9-0.1c2.7-0.1,5.2,0.5,7.4,1.7
			c2.7,1.4,5.1,3.5,7.1,6.3c2.2,3,4,6.5,5.3,10.6c1.7-2.6,3.5-4.8,5.3-6.6c3.1-3,6.2-4.8,9.4-5.5c6-1.4,11.5,0.9,16.6,7
			c5.2,6,8.6,15.4,10.3,28.1c0.4,3.3,0.6,6.5,0.6,9.6c0,2.8-0.2,5.5-0.5,8.2c-0.7,5.6-2,10.8-3.8,15.5c-3.3,8.7-7.9,15.5-13.8,20.3
			C85.1,114,80.5,116,76,116c-1,0-2.1-0.1-3.1-0.3c-2.6-0.6-4-2.8-4.4-6.5c-0.3-3.8,0.4-7.8,2.2-12.2c1-2.4,2.2-4.7,3.8-7
			c1.6-2.3,3.4-4.4,5.5-6.1c2-1.7,4.3-3.2,6.9-4.3c2.5-1.1,5.3-1.7,8.3-1.8c0.1,0.3,0.2,0.6,0.1,1c0,0.4-0.3,0.7-0.8,0.9
			c-3.6,0.1-6.7,0.8-9.4,2.1c-2.7,1.3-5,3-7,5.1c-1.6,1.7-2.9,3.6-4,5.6c-1,2.1-1.9,4.1-2.5,6.1c-1.1,3.8-1.5,7.2-1.1,10.3
			c0.5,3,1.5,4.7,3.1,4.9c1.7,0.3,3.6-0.2,5.8-1.5c2.3-1.2,4.5-3.1,6.8-5.7c1.5-1.6,2.9-3.5,4.4-5.7c1.4-2.1,2.7-4.5,3.9-7.2
			c2.3-4.9,3.9-10.4,5-16.6s1.2-12.9,0.4-20.2c-0.4-3.1-1-6.1-1.7-8.9c-0.8-2.8-1.7-5.5-2.7-7.9c-1.9-4.4-4.3-7.9-7-10.4
			c-2.8-2.5-5.7-3.6-8.8-3.3c-2.6,0.3-5.2,1.6-7.9,4.1c-1.7,1.6-3.4,3.8-5,6.6c0.2,0.9,0.4,1.8,0.7,2.7c1.6,6.9,2.6,13.9,2.9,21.3
			c0.2,3.8,0.2,7.6,0.1,11.4s-0.4,7.3-0.7,10.7c-0.7,6.2-1.8,11.4-3.2,15.6c-1.4,4.2-3,6.4-4.9,6.6c-1.2,0.2-2.3-0.2-3.3-1.1
			s-1.8-2.2-2.5-4c-1.3-3.2-2.1-7.6-2.3-13.1c-0.3-5.5-0.1-11.4,0.6-17.7c0.6-5.2,1.6-10.4,3-15.6c1-3.9,2.2-7.6,3.7-11.1
			c0-0.1,0-0.1,0-0.2c-1.4-7.6-3.4-13.7-6-18.3c-1.4-2.5-3-4.5-4.8-5.8c-1.8-1.4-3.8-1.9-5.9-1.7C42,17,39.9,17.6,38,18.7
			c-1.9,1-3.6,2.4-5.2,4.2c-2.9,3.2-5.1,7.1-6.7,11.7c-1.6,4.7-2.3,9.3-2.1,13.8c0.1,2.5,0.5,4.9,1,7.2s1.1,4.5,1.9,6.5
			c1.5,3.8,3.4,6.8,5.7,9s4.9,3.2,7.6,3c1-0.1,1.9-0.4,2.7-0.9s1.5-1.1,2-1.8c1.4-1.8,2.1-4,2.2-6.6c0.1-2.6-0.6-4.6-2-6.1
			c-0.5-0.6-1-1-1.7-1.4c-0.7-0.3-1.5-0.5-2.4-0.5c-0.6-0.3-0.9-0.9-0.9-1.8c0.1-1,0.5-1.6,1.4-1.6c1.4,0.3,2.7,0.9,3.7,1.7
			s1.8,1.7,2.4,2.9c0.6,1.2,1.1,2.4,1.3,3.8c0.3,1.4,0.3,2.8,0.2,4.2c-0.3,2.7-1.2,5-2.7,7.2C44.8,75.3,42.8,76.5,40.4,76.8z
			 M59.6,55.5c-1.2,4.9-2.1,9.7-2.7,14.5c-0.4,3.1-0.6,6.1-0.8,9.1c-0.1,3-0.2,5.8-0.1,8.3c0.2,4.9,0.8,8.8,1.7,11.8
			s2.2,4.4,3.8,4.2c0.5-0.1,0.8-0.6,1.2-1.6c0.3-1.1,0.6-2.6,0.9-4.5c0.5-3.5,0.7-8.1,0.9-13.7c0.1-5.7-0.1-11.7-0.6-18.1
			c-0.4-5.9-1.1-11.7-2-17.6C61,50.4,60.2,52.9,59.6,55.5z"/>
		<path class="st0" d="M122,97.9c2.1,5.2,4.7,8,7.8,8.4c2.1,0.3,4.2-0.2,6.3-1.6c2.1-1.5,4.1-3.4,6-5.6c2.8-3.5,5.3-7.3,7.5-11.5
			c2.1-4.1,3.6-7.1,4.4-8.9c0.3,0,0.7,0.1,1.1,0.2c0.3,0.1,0.6,0.2,1,0.4c-0.3,0.8-0.8,1.9-1.4,3.2l-2.1,4.3c-1.5,2.8-3.3,5.9-5.3,9
			c-2.1,3.2-4.3,5.9-6.8,8.1c-1.7,1.4-3.4,2.5-5.1,3.3c-1.4,0.6-2.8,0.9-4.2,0.9h-1.3c-4.9-0.6-9.3-3.3-13-8.1
			c-3.5-4.5-5.2-10.7-5.2-18.6v-1.1c0.1-2.9,0.4-5.7,1-8.3c0.6-2.7,1.4-5.2,2.5-7.5c1.9-4.3,4.5-7.5,7.6-9.8
			c2.2-1.6,4.5-2.3,6.9-2.3c1.1,0,2.2,0.2,3.3,0.5c1.7,0.5,3,1.7,4,3.8s1.3,4.6,1,7.5c-0.1,1.5-0.5,3-1.1,4.7
			c-0.6,1.6-1.4,3.2-2.5,4.8c-1.7,2.5-4,4.7-7,6.7c-2.3,1.5-5,2.8-8.1,3.8C119.4,89,120.3,93.7,122,97.9z M125.8,79
			c2.8-1.9,5.1-3.9,6.7-6.1c1.9-2.7,3.2-5.3,3.7-8.1c0.5-2.7,0.4-5-0.2-6.9c-0.3-1-0.8-1.8-1.4-2.5c-0.5-0.6-1.2-1.1-1.9-1.3
			c-1.2-0.3-2.4-0.2-3.6,0.4c-1.2,0.6-2.3,1.6-3.3,3c-1.9,2.5-3.4,5.8-4.7,10.1c-1.3,4.2-2,8.4-2,12.6v2
			C121.7,81.5,123.9,80.4,125.8,79z M133.3,37.3c0.6-0.5,1.1-0.8,1.6-0.8c0.7,0,1.4,0.4,2,1.2s1,1.6,1,2.2c0,0.5-0.1,0.8-0.4,1.2
			c-1.7,1.8-3.9,3.4-6.6,4.7c-2.6,1.3-5,2.2-7.2,2.8c-0.3-0.3-0.5-0.5-0.6-0.7c-0.1-0.1-0.2-0.3-0.2-0.5c0-0.1,0-0.3,0.1-0.6
			c2.4-1.2,4.4-2.6,6-4.4C130.7,40.7,132.1,39,133.3,37.3z"/>
		<path class="st0" d="M151.4,56.7c0.3-1.6,1.1-2.4,2.2-2.4c0.3,0,0.5,0,0.9,0.1c1.7,0.5,2.7,1.6,3.1,3.3c0.3,4.6,0.7,9.6,1.1,15.1
			c0.5,5.5,0.9,11.2,1.1,17c0.1,2.8,0.3,5.7,0.4,8.6c3.3-3,6.4-6,9.2-9c1.7-1.7,3.2-3.6,4.6-5.5c1.4-1.9,2.5-3.9,3.5-6.1l2.3,0.3
			c-1.7,3.8-3.8,7.2-6.3,10.2s-5.2,6-8.1,8.7l-5.1,4.8c0.1,3.6,0.1,7.1,0,10.6c-0.2,6.8-0.7,13.1-1.6,19c-0.9,6-2.4,10.9-4.5,14.8
			c-2,3.6-4.8,5.7-8.4,6.2c-0.5,0.1-1,0.1-1.5,0.1c-2.9,0-5.2-1.3-7-3.9c-1.2-1.6-1.9-3.8-2.1-6.4c-0.1-0.6-0.2-1.3-0.2-2
			c0-2.3,0.4-4.8,1.2-7.7c1.2-4.8,3-9.1,5.3-12.8c2.3-3.7,4.8-7.1,7.6-10.2c1.9-2.1,3.8-4,5.7-5.9c0-0.8,0-1.7,0-2.5
			c-0.1-4-0.3-8-0.5-11.8c-0.5-7.1-1-13.6-1.6-19.5C152.1,63.8,151.7,59.5,151.4,56.7z M154.3,107.6c-3.4,3.4-6.6,7.1-9.6,11.2
			c-2.9,4-5,8.8-6.5,14.3c-0.8,3.2-1.2,5.9-1.2,8.2c0,2.3,0.3,4.2,0.9,5.5c1.1,2.7,2.8,3.7,5.2,3.1s4.6-2.8,6.4-6.6
			c1.8-3.6,3.1-8.1,3.9-13.5c0.8-5.4,1.2-11.1,1.4-17.1c0.1-1.9,0.1-3.9,0.1-5.8C154.7,107.2,154.5,107.4,154.3,107.6z M152.8,27.9
			c0.3-0.1,0.5-0.1,0.7-0.1c0.9,0,1.7,0.4,2.3,1.2c0.8,1,1.3,2,1.5,3.2v0.9c0,0.8-0.2,1.7-0.6,2.5c-0.5,1-1.3,1.6-2.2,1.7
			c-0.3,0.1-0.5,0.1-0.8,0.1c-0.8,0-1.5-0.2-2.2-0.7c-0.9-0.6-1.5-1.6-1.7-2.9c-0.1-0.4-0.1-0.8-0.1-1.2c0-0.9,0.2-1.8,0.6-2.6
			C150.7,28.8,151.5,28.1,152.8,27.9z"/>
		<path class="st0" d="M186.7,97.9c2.1,5.2,4.7,8,7.8,8.5c2.1,0.3,4.2-0.3,6.3-1.7c2.1-1.4,4.1-3.3,6-5.6c2.8-3.5,5.3-7.3,7.5-11.5
			c2.1-4.1,3.6-7.1,4.4-8.9c0.3,0,0.7,0.1,1.1,0.2c0.3,0.1,0.6,0.2,1,0.4c-0.3,0.8-0.8,1.9-1.4,3.2c-0.6,1.4-1.4,2.8-2.1,4.3
			c-1.5,2.9-3.3,5.9-5.3,9c-2.1,3.2-4.3,5.9-6.8,8.1c-1.7,1.4-3.4,2.5-5.1,3.3c-1.4,0.6-2.8,0.9-4.2,0.9h-1.3
			c-4.9-0.6-9.3-3.3-13-8.1c-3.5-4.5-5.2-10.7-5.2-18.6v-1.1c0.1-5.4,1.1-10.3,3-14.8s4.4-8,7.4-10.3c1.6-1.2,3.4-2.1,5.2-2.5
			c0.8-0.2,1.7-0.3,2.5-0.3c1,0,2.1,0.2,3.1,0.5c1.7,0.5,3,1.7,4,3.9c1,2.1,1.3,4.5,1,7.4c-0.1,1.5-0.5,3-1.1,4.7
			c-0.6,1.6-1.4,3.2-2.5,4.9c-1.7,2.4-4,4.6-7,6.6c-2.3,1.5-5,2.8-8.1,3.8C184.1,89,185.1,93.7,186.7,97.9z M190.5,79
			c2.8-1.9,5.1-3.9,6.7-6.1c1-1.4,1.9-2.9,2.5-4.4c0.6-1.4,1-2.8,1.3-4.3c0.4-2.5,0.2-4.8-0.5-6.7c-0.6-1.9-1.7-3.1-3.1-3.4
			c-1.2-0.3-2.4-0.2-3.6,0.4c-1.2,0.6-2.3,1.6-3.3,3c-1.9,2.5-3.4,5.8-4.7,10.1c-1.3,4.2-2,8.4-2,12.6v2
			C186.4,81.5,188.7,80.4,190.5,79z"/>
		<path class="st0" d="M225,56.3c-0.4,1.6-0.7,4.2-0.9,7.9c-0.2,3.6-0.2,7.4-0.1,11.5c0,2.1,0.1,4.3,0.2,6.5
			c0.1,2.1,0.3,4.2,0.5,6.2c0.5,3.6,1,6.7,1.8,9.1c0.8,2.5,1.7,3.8,2.8,3.9c1.7,0.1,3.6-1.8,5.8-5.5c2.1-3.8,4-8.1,5.6-13.1
			c0.8-2.7,1.6-5.3,2.1-8.1c0.6-2.8,0.9-5.3,1.1-7.7c0.2-0.6,0.4-1.1,0.7-1.5c0.3-0.3,0.6-0.6,1-0.8c1-0.5,2.2-0.2,3.4,0.8
			c1.2,0.9,1.8,1.8,1.7,2.8c-0.3,1.8-0.6,4.5-1,8c-0.5,3.6-0.8,7.3-1.2,11.4l-0.4,6.2c-0.1,2.1-0.2,4.1-0.3,6
			c-0.1,3.5,0.1,6.5,0.4,8.9c0.3,2.4,0.9,3.7,1.8,3.8c1.4,0.2,3.3-1.5,5.7-5c2.4-3.6,4.7-7.6,7-12.1c1.6-3,3-6,4.4-8.9
			c1.3-2.9,2.4-5.4,3.2-7.4c0.3,0.1,0.7,0.3,1.1,0.4c0.3,0.1,0.6,0.4,1,0.7c-0.8,2-1.9,4.3-3.1,7c-1.2,2.6-2.5,5.2-3.9,8
			c-2.6,5-5.3,9.4-8.2,13.4c-2.7,3.8-5.1,5.7-7.1,5.7h-0.3c-0.9-0.1-1.7-0.5-2.4-1c-0.7-0.6-1.4-1.3-1.9-2.2
			c-0.7-1.2-1.3-2.7-1.8-4.5c-0.5-1.7-0.8-3.6-1.1-5.5c-0.5-3.6-0.7-7.1-0.7-10.6c0.1-3.4,0.1-5.8,0-7c-0.1,0.8-0.6,2.6-1.6,5.3
			c-1,2.8-2.4,5.4-4,8c-1,1.7-2.2,3.1-3.4,4.3c-1.2,1.2-2.5,1.7-3.8,1.6c-1.4-0.1-2.6-0.5-3.7-1.5c-1.1-0.8-2.1-2-2.9-3.4
			c-1.2-2-2.1-4.4-2.7-7.3c-0.7-2.9-1.2-5.9-1.6-9c-0.5-3.8-0.7-7.6-0.7-11.3v-1.7c0-3,0.1-5.6,0.2-7.8c0.1-1.4,0.1-2.6,0.2-3.6
			c0.1-1,0.2-1.6,0.3-2c0.9-1.1,2-1.7,3.4-1.7h0.1C223.1,53.5,224.2,54.4,225,56.3z"/>
		<path class="st0" d="M272.5,65c0.5,3.2,1,6.5,1.3,9.9s0.6,6.7,0.8,10.1c0.1-0.6,0.3-1.4,0.6-2.5c0.3-1.2,0.6-2.6,1.2-4.2
			c0.9-3,2.1-6.2,3.7-9.6c1.5-3.4,3.4-6.2,5.5-8.4c1-1.2,2.2-2.1,3.4-2.7c1.1-0.6,2.3-0.9,3.5-0.9h0.4c2.3,0.1,4,1,5.3,2.7
			c1.4,1.7,2.4,3.9,3,6.6c0.6,2.8,1,6,1.2,9.6c0.1,3.6,0,7.2-0.2,11c-0.1,2.4-0.2,4.8-0.4,7.2c-0.2,2.3-0.4,4.6-0.6,6.7
			c-0.3,3.9-0.5,7.2-0.5,9.8c-0.1,2.7,0.3,4.1,1.1,4.3c0.8,0.1,1.6,0,2.4-0.5c0.9-0.5,1.8-1.3,2.8-2.2c1.7-1.9,3.5-4.4,5.3-7.5
			c1.9-3.2,3.6-6.4,5.2-9.8c1.7-3.4,3.2-6.7,4.5-9.7s2.2-5.3,2.8-6.7c0.4,0,0.7,0,1.1,0.1s0.8,0.2,1.2,0.3c-0.6,1.6-1.7,4-3,7.2
			c-1.4,3.2-3,6.6-4.9,10.1c-1.7,3.5-3.6,6.9-5.6,10.1c-2.1,3.3-4.1,5.9-6,7.7c-1.1,1-2.2,1.8-3.2,2.3c-0.7,0.3-1.4,0.5-2,0.5
			c-0.3,0-0.6,0-0.9-0.1c-1.9-0.4-3.4-1.5-4.5-3.4c-1-1.9-1.6-4.2-2-6.9c-0.4-2.9-0.5-6.2-0.4-9.8c0.1-3.6,0.4-7.1,0.7-10.8
			c0.2-2.4,0.4-4.7,0.6-7c0.1-2.3,0.2-4.4,0.3-6.5c0.2-3.8,0-6.9-0.5-9.4s-1.6-3.7-3.4-3.8c-2-0.1-4.1,1.2-6.4,4
			c-2.3,2.8-4.3,6.4-6.1,10.9c-1,2.3-1.9,4.9-2.7,7.6c-0.8,2.8-1.5,5.6-2,8.4l-0.2,6.6c-0.1,2.2-0.2,4.3-0.2,6.4
			c-0.4,1.6-1.4,2.3-3.1,2c-1.7-0.2-2.7-1.8-2.9-4.8V88.8c0.1-4.2-0.1-8.3-0.4-12.3c-0.1-2.1-0.4-4.1-0.7-6
			c-0.3-1.9-0.6-3.7-1.1-5.1c0.5-1.1,1.3-1.7,2.5-1.9C270.3,63.2,271.5,63.7,272.5,65z"/>
		<path class="st0" d="M334.2,97.9c2.1,5.2,4.7,8,7.8,8.5c2.1,0.3,4.2-0.3,6.3-1.7c2.1-1.4,4.1-3.3,6-5.6c2.8-3.5,5.3-7.3,7.5-11.5
			c2.1-4.1,3.6-7.1,4.4-8.9c0.3,0,0.7,0.1,1.1,0.2c0.3,0.1,0.6,0.2,1,0.4c-0.3,0.8-0.8,1.9-1.4,3.2c-0.6,1.4-1.4,2.8-2.1,4.3
			c-1.5,2.9-3.3,5.9-5.3,9c-2.1,3.2-4.3,5.9-6.8,8.1c-1.7,1.4-3.4,2.5-5.1,3.3c-1.4,0.6-2.8,0.9-4.2,0.9h-1.3
			c-4.9-0.6-9.3-3.3-13-8.1c-3.5-4.5-5.2-10.7-5.2-18.6v-1.1c0.1-5.4,1.1-10.3,3-14.8s4.4-8,7.4-10.3c1.6-1.2,3.4-2.1,5.2-2.5
			c0.8-0.2,1.7-0.3,2.5-0.3c1,0,2.1,0.2,3.1,0.5c1.7,0.5,3,1.7,4,3.9c1,2.1,1.3,4.5,1,7.4c-0.1,1.5-0.5,3-1.1,4.7
			c-0.6,1.6-1.4,3.2-2.5,4.9c-1.7,2.4-4,4.6-7,6.6c-2.3,1.5-4.9,2.8-8.1,3.8C331.5,89,332.5,93.7,334.2,97.9z M338,79
			c2.8-1.9,5.1-3.9,6.7-6.1c1-1.4,1.9-2.9,2.5-4.4c0.6-1.4,1-2.8,1.3-4.3c0.4-2.5,0.2-4.8-0.5-6.7c-0.6-1.9-1.7-3.1-3.1-3.4
			c-1.2-0.3-2.4-0.2-3.6,0.4c-1.2,0.6-2.3,1.6-3.3,3c-1.9,2.5-3.4,5.8-4.7,10.1c-1.3,4.2-2,8.4-2,12.6v2
			C333.8,81.5,336.1,80.4,338,79z"/>
		<path class="st0" d="M376.3,58.9c1.7,1.1,3.8,1.9,6.2,2.3c2.4,0.5,5.2,0.5,8.4,0c1.2,0.1,1.6,1.5,1.4,4.3s-0.7,6.1-1.7,10.1
			c-0.5,2.2-1,4.5-1.6,6.8c-0.6,2.4-1.1,4.8-1.6,7.1c-1.3,5.4-2.2,10.3-2.7,14.7c-0.5,4.4,0.1,6.8,1.9,7.3c1,0.3,2,0.2,3.1-0.2
			c1-0.4,2.1-1,3.2-1.8c2.1-1.6,4.2-3.9,6.3-6.8c2.1-2.8,4-5.8,5.8-8.9c1.9-3.2,3.5-6.2,4.9-9s2.3-4.9,2.9-6.3
			c0.5-0.1,0.8-0.1,1.2,0c0.3,0,0.7,0.2,1.1,0.5c-0.4,0.8-0.9,1.9-1.5,3.2c-0.6,1.3-1.2,2.7-1.9,4.2c-1.4,2.8-3.1,5.9-5,9.1
			c-1.9,3.3-4,6.3-6.2,9c-2.3,2.7-4.6,4.9-7,6.6c-1.8,1.2-3.6,1.7-5.3,1.7c-0.6,0-1.3-0.1-1.9-0.2c-1.2-0.3-2.3-1-3.1-1.9
			c-0.9-1-1.6-2.3-2-3.8c-1-2.8-1.4-6.2-1.3-10.4c0.1-4.1,0.6-8.4,1.4-12.9c0.6-3.6,1.5-7.2,2.4-10.8c1-3.6,1.9-6.7,2.9-9.5
			c-3,0.4-5.8,0.3-8.2-0.2c-1.2-0.3-2.3-0.5-3.3-0.9c-0.9,2.9-2,5.9-3.4,9c-1.7,4.1-3.1,7.3-4.2,9.6c-0.2-0.1-0.5-0.3-0.9-0.4
			c-0.4-0.2-0.8-0.4-1.2-0.5c0.6-1.5,1.6-3.6,2.7-6.2c1.1-2.7,2.2-5.5,3.3-8.4c0.5-1.4,1-2.8,1.4-4.2c-0.2-0.1-0.4-0.3-0.6-0.4
			c-1.4-0.8-2.5-1.7-3.4-2.8s-1.6-2.2-1.9-3.3c-0.7-2.1-0.5-3.9,0.5-5.6c1-1.7,2.8-2.6,5.5-2.7h0.3c1,0,1.7,0.2,2.2,0.7
			c0.6,0.5,1.1,1.1,1.4,1.9c0.4,1.2,0.5,2.7,0.3,4.5c-0.2,1.7-0.6,3.6-1.1,5.5L376.3,58.9z M373.4,47.9c-2,0.1-2.8,1.5-2.3,4.2
			c0.3,1.9,1.3,3.7,3,5.2c0.3-1.4,0.6-2.8,1-4.1C375.8,49.5,375.3,47.7,373.4,47.9z"/>
	</g>
	<g>
		<path class="st0" d="M443.3,78.4c-0.3-0.1-0.7-0.1-1.1-0.2c-0.3-0.1-0.6-0.2-1-0.5c1.3-3,2.7-6.4,4.3-10.3
			c0.8-2.1,1.5-4.2,2.1-6.3c-1-1.7-2-3.3-2.8-4.9c-1.9-3.4-3.1-6.2-3.5-8.6c-0.4-2.4,0.8-4,3.7-4.8c0.3-0.1,0.6-0.1,0.9-0.1
			c1,0,2,0.5,2.9,1.6c1.2,1.4,2,3.1,2.5,5.1c0.3,1.2,0.4,2.4,0.4,3.6c0.1,1.2-0.1,2.5-0.4,3.7c-0.1,0.1-0.1,0.3-0.1,0.4
			c1,1.2,2,2.5,3,3.9c1.4,1.9,2.7,3.9,4,6c1.6,2.5,3.1,5.1,4.4,7.9c1.2,2.7,2.1,5.4,2.6,8.2c0.6,3.8,0.8,7.2,0.6,10.1
			c1-0.5,2.1-1.1,3.2-1.7c3.2-1.7,6.1-4,8.8-6.7c2.8-2.7,5-6.2,6.5-10.6c0.2-0.1,0.5-0.1,1.1,0c0.5,0.1,0.8,0.3,1.1,0.6
			c-1.9,4.8-4.2,8.7-7.1,11.6c-2.9,3-5.9,5.5-9,7.3c-1.7,1-3.5,1.9-5.1,2.7c-0.6,2.7-1.5,5-2.8,7c-1,1.4-2,2.6-3.2,3.6
			s-2.4,1.7-3.6,2.2c-1.5,0.6-2.9,1-4.3,1c-0.7,0-1.4-0.1-2-0.3c-1.9-0.5-3.1-1.7-3.5-3.6c-0.5-2.3,0.4-4.2,2.6-5.5s5-2.6,8.5-4
			c1-0.4,2-0.8,3.1-1.2c0-0.2,0-0.4,0.1-0.5c0.3-2.8,0.1-6.1-0.7-10c-0.6-2.8-1.6-5.6-2.9-8.4s-2.8-5.5-4.4-8.2
			c-1-1.6-1.9-3.2-2.9-4.9c-0.6,1.6-1.2,3.3-1.8,4.9C445.8,72.5,444.5,75.8,443.3,78.4z M448.8,47.6c-0.8-2.8-1.9-4-3.2-3.6
			c-1.5,0.5-1.6,1.7-0.5,3.8c1,1.8,2.4,4,4.3,6.6C449.7,52.2,449.5,49.9,448.8,47.6z M450.5,101.5c-1.2,0.5-2,1.1-2.6,1.8
			c-0.6,0.6-0.8,1.5-0.7,2.4c0.3,1.7,1.8,2.4,4.5,1.9s4.9-2.4,6.7-5.8c0.5-1,0.9-2.2,1.3-3.6l-0.4,0.1
			C455.6,99.4,452.7,100.4,450.5,101.5z"/>
		<path class="st0" d="M490.4,51.6c-0.4,1.6-0.7,4.2-0.9,7.9c-0.2,3.6-0.2,7.4-0.1,11.5c0,2.1,0.1,4.3,0.2,6.5
			c0.1,2.1,0.3,4.2,0.5,6.2c0.5,3.6,1,6.7,1.8,9.1c0.8,2.5,1.7,3.8,2.8,3.9c1.7,0.1,3.6-1.8,5.8-5.5c2.1-3.8,4-8.1,5.6-13.1
			c0.8-2.7,1.6-5.3,2.1-8.1c0.6-2.8,0.9-5.3,1.1-7.7c0.2-0.6,0.4-1.1,0.7-1.5c0.3-0.3,0.6-0.6,1-0.8c1-0.5,2.2-0.2,3.4,0.8
			c1.2,0.9,1.8,1.8,1.7,2.8c-0.3,1.8-0.6,4.5-1,8c-0.5,3.6-0.8,7.3-1.2,11.4l-0.4,6.2c-0.1,2.1-0.2,4.1-0.3,6
			c-0.1,3.5,0.1,6.5,0.4,8.9c0.3,2.4,0.9,3.7,1.8,3.8c1.4,0.2,3.3-1.5,5.7-5c2.4-3.6,4.7-7.6,7-12.1c1.6-3,3-6,4.4-8.9
			c1.3-2.9,2.4-5.4,3.2-7.4c0.3,0.1,0.7,0.3,1.1,0.4c0.3,0.1,0.6,0.4,1,0.7c-0.8,2-1.9,4.3-3.1,7c-1.2,2.6-2.5,5.2-3.9,8
			c-2.6,5-5.3,9.4-8.2,13.4c-2.7,3.8-5.1,5.7-7.1,5.7h-0.3c-0.9-0.1-1.7-0.5-2.4-1c-0.7-0.6-1.4-1.3-1.9-2.2
			c-0.7-1.2-1.3-2.7-1.8-4.5c-0.5-1.7-0.8-3.6-1.1-5.5c-0.5-3.6-0.7-7.1-0.7-10.6c0.1-3.4,0.1-5.8,0-7c-0.1,0.8-0.6,2.6-1.6,5.3
			c-1,2.8-2.4,5.4-4,8c-1,1.7-2.2,3.1-3.4,4.3c-1.2,1.2-2.5,1.7-3.8,1.6c-1.4-0.1-2.6-0.5-3.7-1.5c-1.1-0.8-2.1-2-2.9-3.4
			c-1.2-2-2.1-4.4-2.7-7.3c-0.7-2.9-1.2-5.9-1.6-9c-0.5-3.8-0.7-7.6-0.7-11.3v-1.7c0-3,0.1-5.6,0.2-7.8c0.1-1.4,0.1-2.6,0.2-3.6
			s0.2-1.6,0.3-2c0.9-1.1,2-1.7,3.4-1.7h0.1C488.5,48.8,489.6,49.7,490.4,51.6z"/>
		<path class="st0" d="M545.9,54.2c1.7,1.1,3.8,1.9,6.2,2.3c2.4,0.5,5.2,0.5,8.4,0c1.2,0.1,1.6,1.5,1.4,4.3
			c-0.2,2.8-0.7,6.1-1.7,10.1c-0.5,2.2-1,4.5-1.6,6.8c-0.6,2.4-1.1,4.8-1.6,7.1c-1.3,5.4-2.2,10.3-2.7,14.7
			c-0.5,4.4,0.1,6.8,1.9,7.3c1,0.3,2,0.2,3.1-0.2c1-0.4,2.1-1,3.2-1.8c2.1-1.6,4.2-3.9,6.3-6.8c2.1-2.8,4-5.8,5.8-8.9
			c1.9-3.2,3.5-6.2,4.9-9s2.3-4.9,2.9-6.3c0.5-0.1,0.8-0.1,1.2,0c0.3,0,0.7,0.2,1.1,0.5c-0.4,0.8-0.9,1.9-1.5,3.2
			c-0.6,1.3-1.2,2.7-1.9,4.2c-1.4,2.8-3.1,5.9-5,9.1c-1.9,3.3-4,6.3-6.2,9c-2.3,2.7-4.6,4.9-7,6.6c-1.8,1.2-3.6,1.7-5.3,1.7
			c-0.6,0-1.3-0.1-1.9-0.2c-1.2-0.3-2.3-1-3.1-1.9c-0.9-1-1.6-2.3-2-3.8c-1-2.8-1.4-6.2-1.3-10.4c0.1-4.1,0.6-8.4,1.4-12.9
			c0.6-3.6,1.5-7.2,2.4-10.8c1-3.6,1.9-6.7,2.9-9.5c-3,0.4-5.8,0.3-8.2-0.2c-1.2-0.3-2.3-0.5-3.3-0.9c-0.9,2.9-2,5.9-3.4,9
			c-1.7,4.1-3.1,7.3-4.2,9.6c-0.2-0.1-0.5-0.3-0.9-0.4c-0.4-0.2-0.8-0.4-1.2-0.5c0.6-1.5,1.6-3.6,2.7-6.2c1.1-2.7,2.2-5.5,3.3-8.4
			c0.5-1.4,1-2.8,1.4-4.2c-0.2-0.1-0.4-0.3-0.6-0.4c-1.4-0.8-2.5-1.7-3.4-2.8s-1.6-2.2-1.9-3.3c-0.7-2.1-0.5-3.9,0.5-5.6
			c1-1.7,2.8-2.6,5.5-2.7h0.3c1,0,1.7,0.2,2.2,0.7c0.6,0.5,1.1,1.1,1.4,1.9c0.4,1.2,0.5,2.7,0.3,4.5c-0.2,1.7-0.6,3.6-1.1,5.5
			L545.9,54.2z M543,43.2c-2,0.1-2.8,1.5-2.3,4.2c0.3,1.9,1.3,3.7,3,5.2c0.3-1.4,0.6-2.8,1-4.1C545.4,44.8,544.8,43,543,43.2z"/>
	</g>
</g>
<g class="st1">
	<path class="st2" d="M161.5,237.8l0.5,6.9c0,0.4-0.4,0.6-1.1,0.6l-0.8-0.3c-0.4-1.4-0.6-3.1-0.6-5.1l0.2-6.6
		c-0.2-0.3-0.4-0.6-0.4-0.8c0.4-0.4,0.6-1.5,0.6-3.3c0-4.2-0.1-6.5-0.3-6.9c0.4-0.6,0.6-0.9,0.8-0.9h2.5c0.5,0,1.1,0.1,1.8,0.4
		c0.8,0.3,1.4,0.5,1.8,0.8c0.9,0.5,1.4,1.9,1.4,4.2c0,2-0.1,3.2-0.4,3.6c-0.3,0.4-0.6,0.8-0.9,1.1c-0.3,0.3-0.7,0.6-1.2,0.8
		c-1,0.5-2.4,0.9-4,1.2L161.5,237.8L161.5,237.8z M161.4,223.5l0.3,5.1l-0.2,3.4l0.4,0.3c2.7,0,4.2-1.8,4.3-5.5c0-0.3,0-0.6,0-1
		s0-0.7-0.1-1c0-0.3-0.1-0.6-0.3-0.9s-0.3-0.6-0.6-0.8c-0.6-0.5-1.4-0.7-2.6-0.7c-0.5,0-0.8,0.1-1,0.2
		C161.5,222.9,161.4,223.2,161.4,223.5z"/>
	<path class="st2" d="M180.9,239.3h-1.5c-0.5-0.1-1.1-0.2-1.8-0.2s-1,0-1,0c-0.1,0-0.1,0.1-0.1,0.1c0,0.1,0,0.1-0.1,0.1l-0.1,0.7
		c-0.1,0.6-0.2,1.3-0.5,2.2c-0.5,1.7-1,2.5-1.6,2.5c-0.2,0-0.5-0.1-0.7-0.2c-0.3-0.1-0.4-0.3-0.4-0.4c0.5-0.9,1-2.2,1.5-4
		s0.8-2.9,1-3.4c0.1-0.4,0.4-1.3,0.7-2.7c0.3-1.4,0.6-2.2,0.7-2.7c0.1-0.4,0.4-1.4,0.9-2.8s0.8-2.4,0.9-2.8c0.1-0.4,0.2-1,0.3-1.8
		c0.3-1.9,0.6-2.9,0.7-3.1h0.8c0.5,0,0.8-0.1,1-0.2c0.2,0,0.5,0,0.7,0.1s0.3,0.2,0.3,0.4c0,1.1,0.2,3.3,0.7,6.6
		c0.5,3.3,0.8,5.4,1.1,6.3c0.3,1,0.6,1.9,0.9,2.8c0.3,0.9,0.5,1.6,0.5,2.1l-0.3,0.5c0,0.5,0.2,1.3,0.5,2.4c0.3,1,0.5,1.8,0.5,2.2
		c0,0.4-0.1,0.7-0.4,0.8c-0.8,0-1.2-0.1-1.4-0.2s-0.3-0.4-0.3-0.7c0-0.3,0-0.7-0.1-1.1s-0.1-0.8-0.2-1.1c-0.1-0.3-0.2-0.7-0.3-1.3
		c-0.2-0.6-0.3-0.9-0.3-1.1C182.7,239.4,181.8,239.3,180.9,239.3z M176.9,237.6c0,0.2,0.4,0.4,1.3,0.6c1.4,0.2,2.9,0.4,4.5,0.4h0.6
		c-0.2-0.5-0.4-1-0.4-1.6v-0.8c0-1.5-0.3-3.6-0.9-6.4c-0.6-2.8-0.9-4.9-0.9-6.3c-2,6.1-3.2,9.9-3.6,11.4
		C177.1,236.2,176.9,237.2,176.9,237.6z"/>
	<path class="st2" d="M207.7,223l-0.1-0.9c0-0.5,0.3-0.7,0.8-0.7c0.4,0,0.7,0.1,0.9,0.3c0.2,0.2,0.3,0.5,0.3,0.7v2.4l-0.3,0.3
		c0,1.9-0.2,5.4-0.6,10.8c-0.4,5.3-0.8,8.2-1.2,8.7c-0.1,0-0.4,0.1-0.8,0.1c-0.4,0.1-0.8,0.1-0.9,0.1s-0.3-0.1-0.5-0.2
		c-0.1-0.2-0.3-0.4-0.3-0.6c-0.1-0.3-0.2-0.4-0.2-0.5l0.1-0.1c-0.2-1-0.7-2.1-1.5-3.4c-0.7-1.3-1.2-2.1-1.4-2.6
		c-0.1-0.1-0.6-1-1.5-2.7c-3.4-6.6-5.5-10.2-6.3-10.7c-0.3,0.7-0.4,1.6-0.4,2.5l0.1,2.8l-0.1,1.7c0,0.3,0.1,1.1,0.2,2.5h-0.2
		c0,4,0.1,6.1,0.4,6.6v3.2c0.1,0.2,0.2,0.4,0.2,0.6c0,0.6-0.3,0.8-1,0.8c-0.8,0-1.2-0.6-1.2-1.9l0.2-2.3l-0.4-10.2l0.4-6.3v-0.6
		c0-0.3,0-0.5,0-0.6s0.1-0.2,0.1-0.4c0-0.1,0.1-0.3,0.1-0.3c0.1-0.1,0.1-0.2,0.2-0.3c0.1-0.2,0.3-0.4,0.6-0.5l0.2,0.1l0.5-0.1
		c0.4,0.1,0.7,0.3,0.8,0.6c0,0,0,0.1,0.1,0.2c0,0.1,0.1,0.2,0.1,0.2c0.6,1.7,2,4,4,7.1c2,3,3.3,5,3.7,5.8c0.4,0.9,0.8,1.8,1.2,2.7
		c0.8,2.1,1.6,3.7,2.5,4.7l0.1-0.1C207.3,237.2,207.7,230.7,207.7,223z M206.5,244.7C206.6,244.7,206.6,244.7,206.5,244.7
		L206.5,244.7z"/>
	<path class="st2" d="M224.2,244.4l-1.9-0.1c-0.3,0-0.6,0.1-1,0.2s-0.9,0.2-1.4,0.2c-0.6,0-0.9-0.1-1.1-0.3h-0.9
		c-0.8,0-1.3-0.1-1.5-0.4c0-0.2,0.1-0.3,0.3-0.4s0.4-0.2,0.4-0.2h1.6l0.2-0.1l0.2-0.7l-0.4-7.8l0.3-8.3c0-1.6-0.1-3-0.3-4.1
		c-0.4-0.1-0.9-0.1-1.7-0.1l-1.3,0.1c-0.7,0-1.1-0.2-1.1-0.6c0-0.1,0.2-0.2,0.5-0.3c0.3-0.1,0.6-0.1,0.8-0.1c5.2,0,7.8,0.4,7.8,1.1
		c0,0.1,0,0.2-0.1,0.3l-1.3,0.1c-0.3-0.1-0.8-0.2-1.6-0.2l-0.3,0.1c0.1,0.2,0.2,0.8,0.2,1.9l-0.2,8.5l0.4,7.8l-0.1,1.1
		c0,0.6,0.1,0.9,0.2,1l-0.1,0.1c0,0.2,0.4,0.3,1.2,0.3h1.6c1.1,0,1.7,0.2,1.7,0.5c0,0.2-0.1,0.4-0.4,0.5
		C224.9,244.3,224.6,244.4,224.2,244.4z"/>
	<path class="st2" d="M230.7,244.4l0.1-0.9l-0.2-0.1c0.3-0.5,0.4-1,0.4-1.5l-0.3-4.7l0.4-10.7l-0.2-4.3c0-0.7,0.5-1,1.6-1
		c0.4,0,0.7,0.1,0.9,0.2c0.1,0,0.7,0.1,1.6,0.1c2.3,0.2,3.5,0.5,3.5,0.9c0,0.2-0.4,0.4-1.1,0.7c-2.1-0.4-3.6-0.7-4.5-0.7l-0.3,0.2
		c0,0.3,0.1,0.8,0.1,1.5l-0.2,5.5c0,0.7,0.3,1,0.8,1l1.9-0.1c1.4,0,2.2,0.2,2.2,0.6c0,0.2-0.1,0.5-0.3,0.6c-0.2,0.2-0.5,0.3-1,0.3
		s-0.9-0.1-1.1-0.3l-1.8-0.2H233l-0.3,0.2v0.1c0.1,0.6,0.1,1.6,0.1,2.8l-0.1,5.1c0,2.4,0.3,3.7,0.8,3.9c0.3,0.2,0.9,0.3,1.8,0.3
		l2.1-0.1c1.1,0,1.6,0.2,1.6,0.5c0,0.4-0.8,0.6-2.4,0.6H232C231.1,245.1,230.7,244.9,230.7,244.4z"/>
	<path class="st2" d="M243.9,222.3c0-0.9,0.4-1.4,1.2-1.4c1.8,0,3.3,0.3,4.5,0.9s1.8,1.4,1.8,2.6v2.6c0,0.9-0.7,2.2-2.2,3.9
		c-0.5,0.6-0.7,0.9-0.7,0.9c0,0.1,0.7,1.9,2.1,5.6c1.4,3.7,2.2,5.6,2.2,5.7c0.1,0.1,0.3,0.4,0.5,0.7c0.3,0.4,0.4,0.7,0.4,1
		s-0.2,0.4-0.6,0.4l-0.8-0.2c-0.9-0.6-1.8-2.9-2.9-7c-1-3.9-1.9-5.8-2.6-5.8h-0.2c-0.8,0-1.2,0.2-1.2,0.5c0,1.3,0.1,3.5,0.4,6.5
		c0.2,3,0.4,4.7,0.6,5.1L246,245h-0.8l-0.4-0.3C244.2,234.4,243.9,226.9,243.9,222.3z M245.5,222.8l0.2,8.6l0.1,0.1
		c0.7,0,1.3-0.2,1.9-0.7c0.6-0.5,1-1,1.3-1.7c0.6-1.4,0.9-2.4,0.9-3.2c0-0.7,0-1.3-0.1-1.6c-0.1-0.4-0.2-0.8-0.5-1.2
		c-0.5-0.8-1.6-1.3-3.2-1.3c-0.2,0-0.4,0.1-0.5,0.3C245.5,222.4,245.5,222.6,245.5,222.8z"/>
	<path class="st2" d="M264.4,222l-1.2-0.2c-0.6,0-1.1,0.1-1.5,0.4s-0.8,0.7-1,1.1c-0.5,0.9-0.7,1.5-0.7,2s0,0.8,0.1,1
		c0,0.2,0.1,0.5,0.2,0.7c0.1,0.3,0.2,0.5,0.2,0.6s0.1,0.4,0.3,0.7c0.2,0.4,0.3,0.6,0.3,0.6l0.4,0.6c0.4,0.4,0.8,0.9,1.4,1.6
		s1,1.1,1.3,1.4s0.6,0.8,1,1.3s0.7,1,0.8,1.4c0.5,1.1,0.7,2.1,0.7,3s-0.1,1.6-0.2,2.1s-0.3,1.1-0.6,1.6c-0.3,0.6-0.7,1-1.1,1.5
		c-1,1-2.4,1.5-4.2,1.5l-0.3,0.1c-1.1-0.1-1.7-0.4-1.8-0.9l0.3-0.3l2,0.2c0.9,0,1.6-0.2,2.2-0.6s1.1-1,1.4-1.6
		c0.5-1.2,0.8-2.3,0.8-3.3s-0.2-2-0.7-2.9s-1-1.7-1.7-2.5s-1.3-1.5-2-2.3c-1.6-1.8-2.4-3.6-2.4-5.4c0-0.9,0.3-1.8,0.8-2.6
		c0.9-1.5,2.2-2.3,3.7-2.3c0.4,0,0.9,0.1,1.4,0.3c0.5,0.2,0.8,0.4,0.8,0.7C265.2,221.9,264.9,222,264.4,222z M264.8,221.8
		L264.8,221.8L264.8,221.8C264.9,221.8,264.9,221.8,264.8,221.8z"/>
	<path class="st2" d="M282.4,237.8l0.5,6.9c0,0.4-0.4,0.6-1.1,0.6L281,245c-0.4-1.4-0.6-3.1-0.6-5.1l0.2-6.6
		c-0.2-0.3-0.4-0.6-0.4-0.8c0.4-0.4,0.6-1.5,0.6-3.3c0-4.2-0.1-6.5-0.3-6.9c0.4-0.6,0.6-0.9,0.8-0.9h2.5c0.5,0,1.1,0.1,1.8,0.4
		c0.8,0.3,1.4,0.5,1.8,0.8c0.9,0.5,1.4,1.9,1.4,4.2c0,2-0.1,3.2-0.4,3.6s-0.6,0.8-0.9,1.1c-0.3,0.3-0.7,0.6-1.2,0.8
		c-1,0.5-2.4,0.9-4,1.2v4.3H282.4z M282.3,223.5l0.3,5.1l-0.2,3.4l0.4,0.3c2.7,0,4.2-1.8,4.3-5.5c0-0.3,0-0.6,0-1s0-0.7-0.1-1
		c0-0.3-0.1-0.6-0.3-0.9c-0.1-0.3-0.3-0.6-0.6-0.8c-0.6-0.5-1.4-0.7-2.6-0.7c-0.5,0-0.8,0.1-1,0.2
		C282.4,222.9,282.3,223.2,282.3,223.5z"/>
	<path class="st2" d="M303.3,244.4l-1.9-0.1c-0.3,0-0.6,0.1-1,0.2s-0.9,0.2-1.4,0.2c-0.6,0-0.9-0.1-1.1-0.3H297
		c-0.8,0-1.3-0.1-1.5-0.4c0-0.2,0.1-0.3,0.3-0.4c0.2-0.1,0.4-0.2,0.4-0.2h1.6l0.2-0.1l0.2-0.7l-0.4-7.8l0.3-8.3c0-1.6-0.1-3-0.3-4.1
		c-0.4-0.1-0.9-0.1-1.7-0.1l-1.3,0.1c-0.7,0-1.1-0.2-1.1-0.6c0-0.1,0.2-0.2,0.5-0.3c0.3-0.1,0.6-0.1,0.8-0.1c5.2,0,7.8,0.4,7.8,1.1
		c0,0.1,0,0.2-0.1,0.3l-1.3,0.1c-0.3-0.1-0.8-0.2-1.6-0.2l-0.3,0.1c0.1,0.2,0.2,0.8,0.2,1.9l-0.2,8.5l0.4,7.8l-0.1,1.1
		c0,0.6,0.1,0.9,0.2,1l-0.1,0.1c0,0.2,0.4,0.3,1.2,0.3h1.6c1.1,0,1.7,0.2,1.7,0.5c0,0.2-0.1,0.4-0.4,0.5
		C304,244.3,303.7,244.4,303.3,244.4z"/>
	<path class="st2" d="M321,252.2c-1.9,0-3.2-0.2-3.7-0.6c0-1.1-0.2-2.2-0.6-3.5s-0.6-2-0.7-2.3c-1.9-0.2-3.3-0.7-4.2-1.3
		c-1-0.7-1.6-2.2-2-4.4c-0.3-2.2-0.5-4.8-0.5-7.7c0-7.5,1.9-11.3,5.6-11.5c0.3,0.1,0.7,0.1,1.2,0.2s1.1,0.2,1.6,0.4
		c0.5,0.2,1.1,0.4,1.7,0.8s1.1,0.9,1.5,1.4s0.7,1.1,0.9,1.6c0.2,0.5,0.4,1.1,0.5,1.8c0.2,1,0.2,2.1,0.2,3.4v1.7
		c0,1.7-0.2,3.7-0.6,5.9c-0.8,4.3-1.9,6.7-3.3,7.3c-0.1,0-0.2,0.1-0.4,0.1c-0.5,0.1-0.7,0.3-0.7,0.4c0,0.9,0.2,1.9,0.6,3.1
		c0.4,1.1,0.7,1.8,0.7,2.1c0.3,0.2,0.7,0.3,1.3,0.2c1,0,1.6,0.1,1.6,0.5C321.7,252,321.5,252.2,321,252.2z M310.8,232.5l0.2,0.7v1.5
		c0,6.8,1.4,10.2,4.3,10.2l1.6-0.2c0.7,0,1.4-0.7,2.1-2c0.6-1.3,1.1-2.7,1.4-4s0.4-2.3,0.4-2.9v-6.2c0-5.1-2.1-7.7-6.2-7.7
		c-1.2,0-2.1,0.8-2.7,2.4C311.2,226.6,310.8,229.3,310.8,232.5z"/>
	<path class="st2" d="M339.8,228.7l0.1,0.7c-0.1,0.6-0.1,1.4-0.2,2.4c0,1-0.1,2-0.1,2.9s-0.1,1.9-0.2,3s-0.2,2-0.4,2.9
		c-0.5,2-1.3,3.4-2.5,4c-1.2,0.7-2.7,0.8-4.3,0.2c-0.7-0.3-1.3-0.6-1.8-1s-0.9-1.6-1.2-3.7c-0.3-2.1-0.5-4.3-0.5-6.6
		c-0.2-6.9-0.3-10.9-0.5-11.9l0.4-0.5c0.9,0.1,1.3,0.7,1.3,2l0.2,9.4l0.6,7.5c0,2.7,1.4,4,4.2,4c1.7,0,2.8-2.5,3.3-7.5
		c0-0.3,0.1-1.9,0.3-4.8c0.1-2.9,0.2-6.3,0.2-10.4l-0.1-0.6c0-0.3,0.3-0.4,0.8-0.4s0.9,0.1,1,0.2c0.1,0.2,0.2,0.9,0.2,2.1
		s-0.1,2.2-0.4,2.8c0,0,0.1,0.1,0.1,0.2L339.8,228.7z"/>
	<path class="st2" d="M346.4,244.4l0.1-0.9l-0.2-0.1c0.3-0.5,0.4-1,0.4-1.5l-0.3-4.7l0.4-10.7l-0.2-4.3c0-0.7,0.5-1,1.6-1
		c0.4,0,0.7,0.1,0.9,0.2c0.1,0,0.7,0.1,1.6,0.1c2.3,0.2,3.5,0.5,3.5,0.9c0,0.2-0.4,0.4-1.1,0.7c-2.1-0.4-3.6-0.7-4.5-0.7l-0.3,0.2
		c0,0.3,0.1,0.8,0.1,1.5l-0.2,5.5c0,0.7,0.3,1,0.8,1l1.9-0.1c1.4,0,2.2,0.2,2.2,0.6c0,0.2-0.1,0.5-0.3,0.6c-0.2,0.2-0.5,0.3-1,0.3
		s-0.9-0.1-1.1-0.3l-1.8-0.2h-0.2l-0.3,0.2v0.1c0.1,0.6,0.1,1.6,0.1,2.8l-0.1,5.1c0,2.4,0.3,3.7,0.8,3.9c0.3,0.2,0.9,0.3,1.8,0.3
		l2.1-0.1c1.1,0,1.6,0.2,1.6,0.5c0,0.4-0.8,0.6-2.4,0.6h-4.6C346.8,245.1,346.4,244.9,346.4,244.4z"/>
	<path class="st2" d="M370.7,231.8c0,0.2-1.2,0.5-3.7,0.7c-2.4,0.2-4.1,0.3-5,0.3s-1.5-0.1-1.8-0.2s-0.4-0.3-0.4-0.4
		c0-0.2,1.2-0.5,3.7-0.7s4.1-0.3,5-0.3C370,231.2,370.7,231.4,370.7,231.8z"/>
	<path class="st2" d="M392.4,223l-0.1-0.9c0-0.5,0.3-0.7,0.8-0.7c0.4,0,0.7,0.1,0.9,0.3c0.2,0.2,0.3,0.5,0.3,0.7v2.4l-0.3,0.3
		c0,1.9-0.2,5.4-0.6,10.8c-0.4,5.3-0.8,8.2-1.2,8.7c-0.1,0-0.4,0.1-0.8,0.1c-0.4,0.1-0.8,0.1-0.9,0.1c-0.2,0-0.3-0.1-0.5-0.2
		c-0.1-0.2-0.3-0.4-0.3-0.6c-0.1-0.3-0.2-0.4-0.2-0.5l0.1-0.1c-0.2-1-0.7-2.1-1.5-3.4c-0.7-1.3-1.2-2.1-1.4-2.6
		c-0.1-0.1-0.6-1-1.5-2.7c-3.4-6.6-5.5-10.2-6.3-10.7c-0.3,0.7-0.4,1.6-0.4,2.5l0.1,2.8l-0.1,1.7c0,0.3,0.1,1.1,0.2,2.5h-0.2
		c0,4,0.1,6.1,0.4,6.6v3.2c0.1,0.2,0.2,0.4,0.2,0.6c0,0.6-0.3,0.8-1,0.8c-0.8,0-1.2-0.6-1.2-1.9l0.2-2.3l-0.4-10.2l0.4-6.3v-0.6
		c0-0.3,0-0.5,0-0.6s0.1-0.2,0.1-0.4c0-0.1,0.1-0.3,0.1-0.3c0.1-0.1,0.1-0.2,0.2-0.3c0.1-0.2,0.3-0.4,0.6-0.5l0.2,0.1l0.5-0.1
		c0.4,0.1,0.7,0.3,0.8,0.6c0,0,0,0.1,0.1,0.2c0,0.1,0.1,0.2,0.1,0.2c0.6,1.7,2,4,4,7.1c2,3,3.3,5,3.7,5.8c0.4,0.9,0.8,1.8,1.2,2.7
		c0.8,2.1,1.6,3.7,2.5,4.7l0.1-0.1C392,237.2,392.4,230.7,392.4,223z M391.3,244.7L391.3,244.7L391.3,244.7z"/>
	<path class="st2" d="M409,244.4l-1.9-0.1c-0.3,0-0.6,0.1-1,0.2s-0.9,0.2-1.4,0.2c-0.6,0-0.9-0.1-1.1-0.3h-0.9
		c-0.8,0-1.3-0.1-1.5-0.4c0-0.2,0.1-0.3,0.3-0.4c0.2-0.1,0.4-0.2,0.4-0.2h1.6l0.2-0.1l0.2-0.7l-0.4-7.8l0.3-8.3c0-1.6-0.1-3-0.3-4.1
		c-0.4-0.1-0.9-0.1-1.7-0.1l-1.3,0.1c-0.7,0-1.1-0.2-1.1-0.6c0-0.1,0.2-0.2,0.5-0.3c0.3-0.1,0.6-0.1,0.8-0.1c5.2,0,7.8,0.4,7.8,1.1
		c0,0.1,0,0.2-0.1,0.3l-1.3,0.1c-0.3-0.1-0.8-0.2-1.6-0.2l-0.3,0.1c0.1,0.2,0.2,0.8,0.2,1.9l-0.2,8.5l0.4,7.8l-0.1,1.1
		c0,0.6,0.1,0.9,0.2,1l-0.1,0.1c0,0.2,0.4,0.3,1.2,0.3h1.6c1.1,0,1.7,0.2,1.7,0.5c0,0.2-0.1,0.4-0.4,0.5
		C409.6,244.3,409.3,244.4,409,244.4z"/>
	<path class="st2" d="M426.6,252.2c-1.9,0-3.2-0.2-3.7-0.6c0-1.1-0.2-2.2-0.6-3.5s-0.6-2-0.7-2.3c-1.9-0.2-3.3-0.7-4.2-1.3
		c-1-0.7-1.6-2.2-2-4.4c-0.3-2.2-0.5-4.8-0.5-7.7c0-7.5,1.8-11.3,5.6-11.5c0.3,0.1,0.7,0.1,1.2,0.2s1.1,0.2,1.6,0.4
		c0.5,0.2,1.1,0.4,1.7,0.8s1.1,0.9,1.5,1.4s0.7,1.1,0.9,1.6c0.2,0.5,0.4,1.1,0.5,1.8c0.2,1,0.2,2.1,0.2,3.4v1.7
		c0,1.7-0.2,3.7-0.6,5.9c-0.8,4.3-1.9,6.7-3.3,7.3c-0.1,0-0.2,0.1-0.4,0.1c-0.5,0.1-0.7,0.3-0.7,0.4c0,0.9,0.2,1.9,0.6,3.1
		c0.4,1.1,0.7,1.8,0.7,2.1c0.3,0.2,0.7,0.3,1.3,0.2c1,0,1.6,0.1,1.6,0.5C427.4,252,427.1,252.2,426.6,252.2z M416.4,232.5l0.2,0.7
		v1.5c0,6.8,1.4,10.2,4.3,10.2l1.6-0.2c0.7,0,1.4-0.7,2.1-2c0.6-1.3,1.1-2.7,1.4-4s0.4-2.3,0.4-2.9v-6.2c0-5.1-2.1-7.7-6.2-7.7
		c-1.2,0-2.1,0.8-2.7,2.4C416.9,226.6,416.4,229.3,416.4,232.5z"/>
	<path class="st2" d="M445.4,228.7l0.1,0.7c-0.1,0.6-0.1,1.4-0.2,2.4c0,1-0.1,2-0.1,2.9s-0.1,1.9-0.2,3s-0.2,2-0.4,2.9
		c-0.5,2-1.3,3.4-2.5,4c-1.2,0.7-2.7,0.8-4.3,0.2c-0.7-0.3-1.3-0.6-1.8-1s-0.9-1.6-1.2-3.7c-0.3-2.1-0.5-4.3-0.5-6.6
		c-0.2-6.9-0.3-10.9-0.5-11.9l0.4-0.5c0.9,0.1,1.3,0.7,1.3,2l0.2,9.4l0.6,7.5c0,2.7,1.4,4,4.2,4c1.7,0,2.8-2.5,3.3-7.5
		c0-0.3,0.1-1.9,0.3-4.8c0.1-2.9,0.2-6.3,0.2-10.4l-0.1-0.6c0-0.3,0.3-0.4,0.8-0.4s0.9,0.1,1,0.2c0.1,0.2,0.2,0.9,0.2,2.1
		s-0.1,2.2-0.4,2.8c0,0,0.1,0.1,0.1,0.2L445.4,228.7z"/>
	<path class="st2" d="M452,244.4l0.1-0.9l-0.2-0.1c0.3-0.5,0.4-1,0.4-1.5l-0.3-4.7l0.4-10.7l-0.2-4.3c0-0.7,0.5-1,1.6-1
		c0.4,0,0.7,0.1,0.9,0.2c0.1,0,0.7,0.1,1.6,0.1c2.3,0.2,3.5,0.5,3.5,0.9c0,0.2-0.4,0.4-1.1,0.7c-2.1-0.4-3.6-0.7-4.5-0.7l-0.3,0.2
		c0,0.3,0.1,0.8,0.1,1.5l-0.2,5.5c0,0.7,0.3,1,0.8,1l1.9-0.1c1.4,0,2.2,0.2,2.2,0.6c0,0.2-0.1,0.5-0.3,0.6c-0.2,0.2-0.5,0.3-1,0.3
		s-0.9-0.1-1.1-0.3l-1.8-0.2h-0.2l-0.3,0.2v0.1c0.1,0.6,0.1,1.6,0.1,2.8l-0.1,5.1c0,2.4,0.3,3.7,0.8,3.9c0.3,0.2,0.9,0.3,1.8,0.3
		l2.1-0.1c1.1,0,1.6,0.2,1.6,0.5c0,0.4-0.8,0.6-2.4,0.6h-4.6C452.4,245.1,452.1,244.9,452,244.4z"/>
	<path class="st2" d="M470.7,222l-1.2-0.2c-0.6,0-1.1,0.1-1.5,0.4s-0.8,0.7-1,1.1c-0.5,0.9-0.7,1.5-0.7,2s0,0.8,0.1,1
		c0,0.2,0.1,0.5,0.2,0.7c0.1,0.3,0.2,0.5,0.2,0.6s0.1,0.4,0.3,0.7c0.2,0.4,0.3,0.6,0.3,0.6l0.4,0.6c0.4,0.4,0.8,0.9,1.4,1.6
		c0.6,0.6,1,1.1,1.3,1.4s0.6,0.8,1,1.3s0.7,1,0.8,1.4c0.5,1.1,0.7,2.1,0.7,3s-0.1,1.6-0.2,2.1s-0.3,1.1-0.6,1.6
		c-0.3,0.6-0.7,1-1.1,1.5c-1,1-2.4,1.5-4.2,1.5l-0.3,0.1c-1.1-0.1-1.7-0.4-1.8-0.9l0.3-0.3l2,0.2c0.9,0,1.6-0.2,2.2-0.6
		s1.1-1,1.4-1.6c0.5-1.2,0.8-2.3,0.8-3.3s-0.2-2-0.7-2.9s-1-1.7-1.7-2.5s-1.3-1.5-2-2.3c-1.6-1.8-2.4-3.6-2.4-5.4
		c0-0.9,0.3-1.8,0.8-2.6c0.9-1.5,2.2-2.3,3.7-2.3c0.4,0,0.9,0.1,1.4,0.3c0.5,0.2,0.8,0.4,0.8,0.7C471.5,221.9,471.2,222,470.7,222z
		 M471.1,221.8L471.1,221.8L471.1,221.8C471.2,221.8,471.2,221.8,471.1,221.8z"/>
</g>
</svg>
