<svg enable-background="new 0 0 128 128" viewBox="0 0 128 128" xmlns="http://www.w3.org/2000/svg"><g fill="#4a898b"><path d="m98 124h-60v-120h60c1.1 0 2-.9 2-2s-.9-2-2-2h-80c-9.9 0-18 8.1-18 18v92c0 9.9 8.1 18 18 18h80c1.1 0 2-.9 2-2s-.9-2-2-2zm-94-14v-92c0-7.7 6.3-14 14-14h16v120h-16c-7.7 0-14-6.3-14-14z"/><path d="m127.4 62.6-30-30c-.8-.7-2.1-.6-2.8.2-.6.7-.6 1.9 0 2.6l26.6 26.6h-63.2c-1.1 0-2 .9-2 2s.9 2 2 2h63.2l-26.6 26.6c-.8.7-.9 2-.2 2.8s2 .9 2.8.2c.1-.1.2-.1.2-.2l30-30c.8-.8.8-2 0-2.8z"/></g></svg>