<svg enable-background="new 0 0 806.3 162" viewBox="0 0 806.3 162" xmlns="http://www.w3.org/2000/svg"><g fill="#4a898b"><path d="m611 75.2c.3 8 1 14.6 1.9 19.8.5 2.8 1.1 5.1 1.8 6.8s1.6 2.6 2.5 2.7c1.6.3 3.3-.7 5.3-3.1 1.9-2.3 3.8-5.1 5.7-8.4 2.3-4.1 4.4-8.2 6.2-12.2 1.8-4.1 2.9-6.8 3.4-8 .3.1.6.2 1 .3.3.1.6.3 1 .5-.2.5-.5 1.3-.9 2.2-.4 1-.9 2.2-1.5 3.6-1.1 2.5-2.5 5.4-4.1 8.5-1.6 3.2-3.3 6.2-5.1 9-1.9 2.8-3.8 5.2-5.7 7.1-1.7 1.6-3.3 2.3-4.9 2.3-.3 0-.6 0-.9-.1-1.6-.3-3-1.1-4.3-2.4-1.4-1.3-2.5-3-3.5-5.1-1.9-3.9-3.3-9-4.3-15-.9-6.1-1.4-12.6-1.5-19.4v-1.2c0-4.1.2-8.2.5-12.2.3-4.5.8-8.8 1.6-12.9 1.2-7.6 3-14 5.4-19.2s5.3-7.8 8.6-8h.1c1.4 0 2.6.6 3.6 1.7 1 1.2 1.8 2.8 2.3 4.9 1.1 3.9 1.4 8.9 1 15.1-.5 6.2-1.8 12.6-3.9 19-1.4 4.3-3.2 8.4-5.4 12.4-1.8 3.4-3.9 6.5-6.3 9.3zm6.2-15.6c2.3-5.2 4.1-10.6 5.2-16 1.2-5.2 1.8-10.3 1.9-15s-.2-8.5-1.1-11.5c-.4-1.6-.9-2.7-1.6-3.6-.6-.9-1.5-1.3-2.4-1.3-1.4.1-2.7 1.9-3.8 5.4s-2 8-2.7 13.5c-.4 3-.7 6.1-1 9.5s-.5 6.9-.7 10.5c-.3 6.3-.4 12.7-.3 19 2.6-3 4.8-6.5 6.5-10.5z"/><path d="m649 10.4c0 2.2-.4 4.2-1.1 6.1s-1.5 3.1-2.4 3.5c-.2-.1-.4-.2-.5-.4-.1-.1-.1-.3-.1-.4 1-.4 1.7-1.4 2.2-3s.6-3.1.6-4.4c-.1.4-.3.8-.8 1.2-.4.4-.9.6-1.5.6-.7.1-1.4-.2-2-.9-.6-.6-1-1.4-1.1-2.4 0-1.1.3-2 1-2.8.6-.8 1.3-1.3 2.2-1.3.8 0 1.6.4 2.3 1.1.8.7 1.2 1.7 1.2 3.1z"/><path d="m661.9 92c2.1 5.2 4.7 8 7.8 8.5 2.1.3 4.2-.3 6.3-1.7s4.1-3.3 6-5.6c2.8-3.5 5.3-7.3 7.5-11.5 2.1-4.1 3.6-7.1 4.4-8.9.3 0 .7.1 1.1.2.3.1.6.2 1 .4-.3.8-.8 1.9-1.4 3.2-.6 1.4-1.4 2.8-2.1 4.3-1.5 2.9-3.3 5.9-5.3 9-2.1 3.2-4.3 5.9-6.8 8.1-1.7 1.4-3.4 2.5-5.1 3.3-1.4.6-2.8.9-4.2.9h-1.3c-4.9-.6-9.3-3.3-13-8.1-3.5-4.5-5.2-10.7-5.2-18.6v-1.1c.1-5.4 1.1-10.3 3-14.8s4.4-8 7.4-10.3c1.6-1.2 3.4-2.1 5.2-2.5.8-.2 1.7-.3 2.5-.3 1 0 2.1.2 3.1.5 1.7.5 3 1.7 4 3.9 1 2.1 1.3 4.5 1 7.4-.1 1.5-.5 3-1.1 4.7-.6 1.6-1.4 3.2-2.5 4.9-1.7 2.4-4 4.6-7 6.6-2.3 1.5-5 2.8-8.1 3.8.1 4.8 1.1 9.5 2.8 13.7zm3.7-18.9c2.8-1.9 5.1-3.9 6.7-6.1 1-1.4 1.9-2.9 2.5-4.4.6-1.4 1-2.8 1.3-4.3.4-2.5.2-4.8-.5-6.7-.6-1.9-1.7-3.1-3.1-3.4-1.2-.3-2.4-.2-3.6.4s-2.3 1.7-3.3 3c-1.9 2.5-3.4 5.8-4.7 10.1-1.3 4.2-2 8.4-2 12.6v2c2.6-.8 4.9-1.9 6.7-3.2z"/><path d="m724.6 67.6c-.5 0-.9-.1-1.1-.3-.2-.1-.3-.4-.4-.8 1.9-1.4 2.8-3.8 2.8-7-.1-3.2-1-5.8-2.9-8-.6-.6-1.3-1.2-2-1.7-.8-.5-1.8-.7-2.7-.9-1.7-.2-3.3 0-4.8.6s-2.9 1.6-4.1 2.7c-2.3 2.2-4.3 5.1-5.9 8.8-1.6 3.8-2.7 7.6-3.3 11.5-.2 1.3-.3 2.8-.4 4.5s-.1 3.3 0 5c.1 3.2.6 6.1 1.5 8.6.8 2.5 2.1 3.9 3.9 4 .8.1 1.6-.3 2.5-1 .8-.7 1.7-1.7 2.4-3 1.6-2.3 2.9-5.5 4.1-9.4s1.9-8.1 2.1-12.4c.1-.6.3-1.1.6-1.5s.6-.6 1-.8c1.1-.5 2.2-.2 3.4.7 1.2 1 1.8 1.9 1.7 2.9-.2 1.8-.5 4.2-.9 7.2-.3 3-.6 6.1-.8 9.3-.4 4.9-.5 9.4-.3 13.5s1 6.3 2.4 6.5c1.5.2 3.4-1.5 5.7-5 2.4-3.6 4.8-7.6 7.1-12.1 1.6-3 3-6 4.3-8.9 1.4-2.9 2.5-5.4 3.3-7.4.3.1.6.3 1 .4s.7.4 1 .7c-.8 2-1.9 4.3-3.1 7-1.2 2.6-2.5 5.2-3.9 8-2.6 5-5.3 9.4-8.2 13.4-2.7 3.8-5.1 5.7-7.2 5.7h-.3c-1.1-.1-2.1-.5-2.9-1.3-.8-.7-1.5-1.6-2-2.7-.6-1.1-1.1-2.4-1.5-3.9-.3-1.4-.6-2.9-.8-4.5-.4-2.9-.6-5.7-.6-8.4.1-2.7.1-4.5.1-5.6-.2.7-.7 2.1-1.5 4.1-.8 2.1-1.9 4-3.2 5.8-.9 1.2-1.9 2.2-2.9 3s-2 1.2-3 1.2c-1.9-.1-3.5-.6-4.9-1.5-1.3-.9-2.5-2-3.4-3.4-1.7-2.5-2.8-5.6-3.2-9.2-.3-1.7-.4-3.5-.4-5.1 0-1.7.1-3.3.4-5 1-7.4 3.8-13.5 8.3-18.2 3.8-4 8.3-6 13.5-6 1 0 2.1.1 3.1.2 1.6.3 3 .8 4.3 1.7 1.2.9 2.1 2 2.9 3.2 1.4 2.3 2 5 1.8 8 .1 2.7-.9 5-2.6 6.8z"/><path d="m750.6 50.4c-.4 1.6-.7 4.2-.9 7.9-.2 3.6-.2 7.4-.1 11.5 0 2.1.1 4.3.2 6.5.1 2.1.3 4.2.5 6.2.5 3.6 1 6.7 1.8 9.1.8 2.5 1.7 3.8 2.8 3.9 1.7.1 3.6-1.8 5.8-5.5 2.1-3.8 4-8.1 5.6-13.1.8-2.7 1.6-5.3 2.1-8.1.6-2.8.9-5.3 1.1-7.7.2-.6.4-1.1.7-1.5.3-.3.6-.6 1-.8 1-.5 2.2-.2 3.4.8 1.2.9 1.8 1.8 1.7 2.8-.3 1.8-.6 4.5-1 8-.5 3.6-.8 7.3-1.2 11.4l-.4 6.2c-.1 2.1-.2 4.1-.3 6-.1 3.5.1 6.5.4 8.9s.9 3.7 1.8 3.8c1.4.2 3.3-1.5 5.7-5 2.4-3.6 4.7-7.6 7-12.1 1.6-3 3-6 4.4-8.9 1.3-2.9 2.4-5.4 3.2-7.4.3.1.7.3 1.1.4.3.1.6.4 1 .7-.8 2-1.9 4.3-3.1 7-1.2 2.6-2.5 5.2-3.9 8-2.6 5-5.3 9.4-8.2 13.4-2.7 3.8-5.1 5.7-7.1 5.7h-.3c-.9-.1-1.7-.5-2.4-1-.7-.6-1.4-1.3-1.9-2.2-.7-1.2-1.3-2.7-1.8-4.5-.5-1.7-.8-3.6-1.1-5.5-.5-3.6-.7-7.1-.7-10.6.1-3.4.1-5.8 0-7-.1.8-.6 2.6-1.6 5.3-1 2.8-2.4 5.4-4 8-1 1.7-2.2 3.1-3.4 4.3s-2.5 1.7-3.8 1.6c-1.4-.1-2.6-.5-3.7-1.5-1.1-.8-2.1-2-2.9-3.4-1.2-2-2.1-4.4-2.7-7.3-.7-2.9-1.2-5.9-1.6-9-.5-3.8-.7-7.6-.7-11.3v-1.7c0-3 .1-5.6.2-7.8.1-1.4.1-2.6.2-3.6s.2-1.7.3-2c.9-1.1 2-1.7 3.4-1.7h.1c1.4 0 2.5.9 3.3 2.8z"/><path d="m40.4 76.8c-5.2.5-9.6-1.9-13-7.4-3.5-5.4-5.5-12.3-5.9-20.6v-2.2c0-4.3.7-8.6 2.1-12.9 1.7-4.9 4.1-9 7.4-12.3 1.8-1.7 3.8-3.2 5.9-4.3 2.2-1.2 4.6-1.8 7.1-2 .6-.1 1.3-.1 1.9-.1 2.7-.1 5.2.5 7.4 1.7 2.7 1.4 5.1 3.5 7.1 6.3 2.2 3 4 6.5 5.3 10.6 1.7-2.6 3.5-4.8 5.3-6.6 3.1-3 6.2-4.8 9.4-5.5 6-1.4 11.5.9 16.6 7 5.2 6 8.6 15.4 10.3 28.1.4 3.3.6 6.5.6 9.6 0 2.8-.2 5.5-.5 8.2-.7 5.6-2 10.8-3.8 15.5-3.3 8.7-7.9 15.5-13.8 20.3-4.7 3.8-9.3 5.8-13.8 5.8-1 0-2.1-.1-3.1-.3-2.6-.6-4-2.8-4.4-6.5-.3-3.8.4-7.8 2.2-12.2 1-2.4 2.2-4.7 3.8-7s3.4-4.4 5.5-6.1c2-1.7 4.3-3.2 6.9-4.3 2.5-1.1 5.3-1.7 8.3-1.8.1.3.2.6.1 1 0 .4-.3.7-.8.9-3.6.1-6.7.8-9.4 2.1s-5 3-7 5.1c-1.6 1.7-2.9 3.6-4 5.6-1 2.1-1.9 4.1-2.5 6.1-1.1 3.8-1.5 7.2-1.1 10.3.5 3 1.5 4.7 3.1 4.9 1.7.3 3.6-.2 5.8-1.5 2.3-1.2 4.5-3.1 6.8-5.7 1.5-1.6 2.9-3.5 4.4-5.7 1.4-2.1 2.7-4.5 3.9-7.2 2.3-4.9 3.9-10.4 5-16.6s1.2-12.9.4-20.2c-.4-3.1-1-6.1-1.7-8.9-.8-2.8-1.7-5.5-2.7-7.9-1.9-4.4-4.3-7.9-7-10.4-2.8-2.5-5.7-3.6-8.8-3.3-2.6.3-5.2 1.6-7.9 4.1-1.7 1.6-3.4 3.8-5 6.6.2.9.4 1.8.7 2.7 1.6 6.9 2.6 13.9 2.9 21.3.2 3.8.2 7.6.1 11.4s-.4 7.3-.7 10.7c-.7 6.2-1.8 11.4-3.2 15.6s-3 6.4-4.9 6.6c-1.2.2-2.3-.2-3.3-1.1s-1.8-2.2-2.5-4c-1.3-3.2-2.1-7.6-2.3-13.1-.3-5.5-.1-11.4.6-17.7.6-5.2 1.6-10.4 3-15.6 1-3.9 2.2-7.6 3.7-11.1 0-.1 0-.1 0-.2-1.4-7.6-3.4-13.7-6-18.3-1.4-2.5-3-4.5-4.8-5.8-1.8-1.4-3.8-1.9-5.9-1.7-2.2.2-4.3.8-6.2 1.9-1.9 1-3.6 2.4-5.2 4.2-2.9 3.2-5.1 7.1-6.7 11.7-1.6 4.7-2.3 9.3-2.1 13.8.1 2.5.5 4.9 1 7.2s1.1 4.5 1.9 6.5c1.5 3.8 3.4 6.8 5.7 9s4.9 3.2 7.6 3c1-.1 1.9-.4 2.7-.9s1.5-1.1 2-1.8c1.4-1.8 2.1-4 2.2-6.6s-.6-4.6-2-6.1c-.5-.6-1-1-1.7-1.4-.7-.3-1.5-.5-2.4-.5-.6-.3-.9-.9-.9-1.8.1-1 .5-1.6 1.4-1.6 1.4.3 2.7.9 3.7 1.7s1.8 1.7 2.4 2.9 1.1 2.4 1.3 3.8c.3 1.4.3 2.8.2 4.2-.3 2.7-1.2 5-2.7 7.2-1.6 2.1-3.6 3.3-6 3.6zm19.2-21.3c-1.2 4.9-2.1 9.7-2.7 14.5-.4 3.1-.6 6.1-.8 9.1-.1 3-.2 5.8-.1 8.3.2 4.9.8 8.8 1.7 11.8s2.2 4.4 3.8 4.2c.5-.1.8-.6 1.2-1.6.3-1.1.6-2.6.9-4.5.5-3.5.7-8.1.9-13.7.1-5.7-.1-11.7-.6-18.1-.4-5.9-1.1-11.7-2-17.6-.9 2.5-1.7 5-2.3 7.6z"/><path d="m122 97.9c2.1 5.2 4.7 8 7.8 8.4 2.1.3 4.2-.2 6.3-1.6 2.1-1.5 4.1-3.4 6-5.6 2.8-3.5 5.3-7.3 7.5-11.5 2.1-4.1 3.6-7.1 4.4-8.9.3 0 .7.1 1.1.2.3.1.6.2 1 .4-.3.8-.8 1.9-1.4 3.2l-2.1 4.3c-1.5 2.8-3.3 5.9-5.3 9-2.1 3.2-4.3 5.9-6.8 8.1-1.7 1.4-3.4 2.5-5.1 3.3-1.4.6-2.8.9-4.2.9h-1.3c-4.9-.6-9.3-3.3-13-8.1-3.5-4.5-5.2-10.7-5.2-18.6v-1.1c.1-2.9.4-5.7 1-8.3.6-2.7 1.4-5.2 2.5-7.5 1.9-4.3 4.5-7.5 7.6-9.8 2.2-1.6 4.5-2.3 6.9-2.3 1.1 0 2.2.2 3.3.5 1.7.5 3 1.7 4 3.8s1.3 4.6 1 7.5c-.1 1.5-.5 3-1.1 4.7-.6 1.6-1.4 3.2-2.5 4.8-1.7 2.5-4 4.7-7 6.7-2.3 1.5-5 2.8-8.1 3.8.1 4.8 1 9.5 2.7 13.7zm3.8-18.9c2.8-1.9 5.1-3.9 6.7-6.1 1.9-2.7 3.2-5.3 3.7-8.1.5-2.7.4-5-.2-6.9-.3-1-.8-1.8-1.4-2.5-.5-.6-1.2-1.1-1.9-1.3-1.2-.3-2.4-.2-3.6.4s-2.3 1.6-3.3 3c-1.9 2.5-3.4 5.8-4.7 10.1-1.3 4.2-2 8.4-2 12.6v2c2.6-.7 4.8-1.8 6.7-3.2zm7.5-41.7c.6-.5 1.1-.8 1.6-.8.7 0 1.4.4 2 1.2s1 1.6 1 2.2c0 .5-.1.8-.4 1.2-1.7 1.8-3.9 3.4-6.6 4.7-2.6 1.3-5 2.2-7.2 2.8-.3-.3-.5-.5-.6-.7-.1-.1-.2-.3-.2-.5 0-.1 0-.3.1-.6 2.4-1.2 4.4-2.6 6-4.4 1.7-1.7 3.1-3.4 4.3-5.1z"/><path d="m151.4 56.7c.3-1.6 1.1-2.4 2.2-2.4.3 0 .5 0 .9.1 1.7.5 2.7 1.6 3.1 3.3.3 4.6.7 9.6 1.1 15.1.5 5.5.9 11.2 1.1 17 .1 2.8.3 5.7.4 8.6 3.3-3 6.4-6 9.2-9 1.7-1.7 3.2-3.6 4.6-5.5s2.5-3.9 3.5-6.1l2.3.3c-1.7 3.8-3.8 7.2-6.3 10.2s-5.2 6-8.1 8.7l-5.1 4.8c.1 3.6.1 7.1 0 10.6-.2 6.8-.7 13.1-1.6 19-.9 6-2.4 10.9-4.5 14.8-2 3.6-4.8 5.7-8.4 6.2-.5.1-1 .1-1.5.1-2.9 0-5.2-1.3-7-3.9-1.2-1.6-1.9-3.8-2.1-6.4-.1-.6-.2-1.3-.2-2 0-2.3.4-4.8 1.2-7.7 1.2-4.8 3-9.1 5.3-12.8s4.8-7.1 7.6-10.2c1.9-2.1 3.8-4 5.7-5.9 0-.8 0-1.7 0-2.5-.1-4-.3-8-.5-11.8-.5-7.1-1-13.6-1.6-19.5-.6-6-1-10.3-1.3-13.1zm2.9 50.9c-3.4 3.4-6.6 7.1-9.6 11.2-2.9 4-5 8.8-6.5 14.3-.8 3.2-1.2 5.9-1.2 8.2s.3 4.2.9 5.5c1.1 2.7 2.8 3.7 5.2 3.1s4.6-2.8 6.4-6.6c1.8-3.6 3.1-8.1 3.9-13.5s1.2-11.1 1.4-17.1c.1-1.9.1-3.9.1-5.8-.2.3-.4.5-.6.7zm-1.5-79.7c.3-.1.5-.1.7-.1.9 0 1.7.4 2.3 1.2.8 1 1.3 2 1.5 3.2v.9c0 .8-.2 1.7-.6 2.5-.5 1-1.3 1.6-2.2 1.7-.3.1-.5.1-.8.1-.8 0-1.5-.2-2.2-.7-.9-.6-1.5-1.6-1.7-2.9-.1-.4-.1-.8-.1-1.2 0-.9.2-1.8.6-2.6.4-1.2 1.2-1.9 2.5-2.1z"/><path d="m186.7 97.9c2.1 5.2 4.7 8 7.8 8.5 2.1.3 4.2-.3 6.3-1.7s4.1-3.3 6-5.6c2.8-3.5 5.3-7.3 7.5-11.5 2.1-4.1 3.6-7.1 4.4-8.9.3 0 .7.1 1.1.2.3.1.6.2 1 .4-.3.8-.8 1.9-1.4 3.2-.6 1.4-1.4 2.8-2.1 4.3-1.5 2.9-3.3 5.9-5.3 9-2.1 3.2-4.3 5.9-6.8 8.1-1.7 1.4-3.4 2.5-5.1 3.3-1.4.6-2.8.9-4.2.9h-1.3c-4.9-.6-9.3-3.3-13-8.1-3.5-4.5-5.2-10.7-5.2-18.6v-1.1c.1-5.4 1.1-10.3 3-14.8s4.4-8 7.4-10.3c1.6-1.2 3.4-2.1 5.2-2.5.8-.2 1.7-.3 2.5-.3 1 0 2.1.2 3.1.5 1.7.5 3 1.7 4 3.9 1 2.1 1.3 4.5 1 7.4-.1 1.5-.5 3-1.1 4.7-.6 1.6-1.4 3.2-2.5 4.9-1.7 2.4-4 4.6-7 6.6-2.3 1.5-5 2.8-8.1 3.8.2 4.8 1.2 9.5 2.8 13.7zm3.8-18.9c2.8-1.9 5.1-3.9 6.7-6.1 1-1.4 1.9-2.9 2.5-4.4.6-1.4 1-2.8 1.3-4.3.4-2.5.2-4.8-.5-6.7-.6-1.9-1.7-3.1-3.1-3.4-1.2-.3-2.4-.2-3.6.4s-2.3 1.6-3.3 3c-1.9 2.5-3.4 5.8-4.7 10.1-1.3 4.2-2 8.4-2 12.6v2c2.6-.7 4.9-1.8 6.7-3.2z"/><path d="m225 56.3c-.4 1.6-.7 4.2-.9 7.9-.2 3.6-.2 7.4-.1 11.5 0 2.1.1 4.3.2 6.5.1 2.1.3 4.2.5 6.2.5 3.6 1 6.7 1.8 9.1.8 2.5 1.7 3.8 2.8 3.9 1.7.1 3.6-1.8 5.8-5.5 2.1-3.8 4-8.1 5.6-13.1.8-2.7 1.6-5.3 2.1-8.1.6-2.8.9-5.3 1.1-7.7.2-.6.4-1.1.7-1.5.3-.3.6-.6 1-.8 1-.5 2.2-.2 3.4.8 1.2.9 1.8 1.8 1.7 2.8-.3 1.8-.6 4.5-1 8-.5 3.6-.8 7.3-1.2 11.4l-.4 6.2c-.1 2.1-.2 4.1-.3 6-.1 3.5.1 6.5.4 8.9s.9 3.7 1.8 3.8c1.4.2 3.3-1.5 5.7-5 2.4-3.6 4.7-7.6 7-12.1 1.6-3 3-6 4.4-8.9 1.3-2.9 2.4-5.4 3.2-7.4.3.1.7.3 1.1.4.3.1.6.4 1 .7-.8 2-1.9 4.3-3.1 7-1.2 2.6-2.5 5.2-3.9 8-2.6 5-5.3 9.4-8.2 13.4-2.7 3.8-5.1 5.7-7.1 5.7h-.3c-.9-.1-1.7-.5-2.4-1-.7-.6-1.4-1.3-1.9-2.2-.7-1.2-1.3-2.7-1.8-4.5-.5-1.7-.8-3.6-1.1-5.5-.5-3.6-.7-7.1-.7-10.6.1-3.4.1-5.8 0-7-.1.8-.6 2.6-1.6 5.3-1 2.8-2.4 5.4-4 8-1 1.7-2.2 3.1-3.4 4.3s-2.5 1.7-3.8 1.6c-1.4-.1-2.6-.5-3.7-1.5-1.1-.8-2.1-2-2.9-3.4-1.2-2-2.1-4.4-2.7-7.3-.7-2.9-1.2-5.9-1.6-9-.5-3.8-.7-7.6-.7-11.3v-1.7c0-3 .1-5.6.2-7.8.1-1.4.1-2.6.2-3.6s.2-1.6.3-2c.9-1.1 2-1.7 3.4-1.7h.1c1.4 0 2.5.9 3.3 2.8z"/><path d="m272.5 65c.5 3.2 1 6.5 1.3 9.9s.6 6.7.8 10.1c.1-.6.3-1.4.6-2.5.3-1.2.6-2.6 1.2-4.2.9-3 2.1-6.2 3.7-9.6 1.5-3.4 3.4-6.2 5.5-8.4 1-1.2 2.2-2.1 3.4-2.7 1.1-.6 2.3-.9 3.5-.9h.4c2.3.1 4 1 5.3 2.7 1.4 1.7 2.4 3.9 3 6.6.6 2.8 1 6 1.2 9.6.1 3.6 0 7.2-.2 11-.1 2.4-.2 4.8-.4 7.2-.2 2.3-.4 4.6-.6 6.7-.3 3.9-.5 7.2-.5 9.8-.1 2.7.3 4.1 1.1 4.3.8.1 1.6 0 2.4-.5.9-.5 1.8-1.3 2.8-2.2 1.7-1.9 3.5-4.4 5.3-7.5 1.9-3.2 3.6-6.4 5.2-9.8 1.7-3.4 3.2-6.7 4.5-9.7s2.2-5.3 2.8-6.7c.4 0 .7 0 1.1.1s.8.2 1.2.3c-.6 1.6-1.7 4-3 7.2-1.4 3.2-3 6.6-4.9 10.1-1.7 3.5-3.6 6.9-5.6 10.1-2.1 3.3-4.1 5.9-6 7.7-1.1 1-2.2 1.8-3.2 2.3-.7.3-1.4.5-2 .5-.3 0-.6 0-.9-.1-1.9-.4-3.4-1.5-4.5-3.4-1-1.9-1.6-4.2-2-6.9-.4-2.9-.5-6.2-.4-9.8s.4-7.1.7-10.8c.2-2.4.4-4.7.6-7 .1-2.3.2-4.4.3-6.5.2-3.8 0-6.9-.5-9.4s-1.6-3.7-3.4-3.8c-2-.1-4.1 1.2-6.4 4s-4.3 6.4-6.1 10.9c-1 2.3-1.9 4.9-2.7 7.6-.8 2.8-1.5 5.6-2 8.4l-.2 6.6c-.1 2.2-.2 4.3-.2 6.4-.4 1.6-1.4 2.3-3.1 2-1.7-.2-2.7-1.8-2.9-4.8v-11.1c.1-4.2-.1-8.3-.4-12.3-.1-2.1-.4-4.1-.7-6s-.6-3.7-1.1-5.1c.5-1.1 1.3-1.7 2.5-1.9 1.3-.3 2.5.2 3.5 1.5z"/><path d="m334.2 97.9c2.1 5.2 4.7 8 7.8 8.5 2.1.3 4.2-.3 6.3-1.7s4.1-3.3 6-5.6c2.8-3.5 5.3-7.3 7.5-11.5 2.1-4.1 3.6-7.1 4.4-8.9.3 0 .7.1 1.1.2.3.1.6.2 1 .4-.3.8-.8 1.9-1.4 3.2-.6 1.4-1.4 2.8-2.1 4.3-1.5 2.9-3.3 5.9-5.3 9-2.1 3.2-4.3 5.9-6.8 8.1-1.7 1.4-3.4 2.5-5.1 3.3-1.4.6-2.8.9-4.2.9h-1.3c-4.9-.6-9.3-3.3-13-8.1-3.5-4.5-5.2-10.7-5.2-18.6v-1.1c.1-5.4 1.1-10.3 3-14.8s4.4-8 7.4-10.3c1.6-1.2 3.4-2.1 5.2-2.5.8-.2 1.7-.3 2.5-.3 1 0 2.1.2 3.1.5 1.7.5 3 1.7 4 3.9 1 2.1 1.3 4.5 1 7.4-.1 1.5-.5 3-1.1 4.7-.6 1.6-1.4 3.2-2.5 4.9-1.7 2.4-4 4.6-7 6.6-2.3 1.5-4.9 2.8-8.1 3.8.1 4.8 1.1 9.5 2.8 13.7zm3.8-18.9c2.8-1.9 5.1-3.9 6.7-6.1 1-1.4 1.9-2.9 2.5-4.4.6-1.4 1-2.8 1.3-4.3.4-2.5.2-4.8-.5-6.7-.6-1.9-1.7-3.1-3.1-3.4-1.2-.3-2.4-.2-3.6.4s-2.3 1.6-3.3 3c-1.9 2.5-3.4 5.8-4.7 10.1-1.3 4.2-2 8.4-2 12.6v2c2.5-.7 4.8-1.8 6.7-3.2z"/><path d="m376.3 58.9c1.7 1.1 3.8 1.9 6.2 2.3 2.4.5 5.2.5 8.4 0 1.2.1 1.6 1.5 1.4 4.3s-.7 6.1-1.7 10.1c-.5 2.2-1 4.5-1.6 6.8-.6 2.4-1.1 4.8-1.6 7.1-1.3 5.4-2.2 10.3-2.7 14.7s.1 6.8 1.9 7.3c1 .3 2 .2 3.1-.2 1-.4 2.1-1 3.2-1.8 2.1-1.6 4.2-3.9 6.3-6.8 2.1-2.8 4-5.8 5.8-8.9 1.9-3.2 3.5-6.2 4.9-9s2.3-4.9 2.9-6.3c.5-.1.8-.1 1.2 0 .3 0 .7.2 1.1.5-.4.8-.9 1.9-1.5 3.2s-1.2 2.7-1.9 4.2c-1.4 2.8-3.1 5.9-5 9.1-1.9 3.3-4 6.3-6.2 9-2.3 2.7-4.6 4.9-7 6.6-1.8 1.2-3.6 1.7-5.3 1.7-.6 0-1.3-.1-1.9-.2-1.2-.3-2.3-1-3.1-1.9-.9-1-1.6-2.3-2-3.8-1-2.8-1.4-6.2-1.3-10.4.1-4.1.6-8.4 1.4-12.9.6-3.6 1.5-7.2 2.4-10.8 1-3.6 1.9-6.7 2.9-9.5-3 .4-5.8.3-8.2-.2-1.2-.3-2.3-.5-3.3-.9-.9 2.9-2 5.9-3.4 9-1.7 4.1-3.1 7.3-4.2 9.6-.2-.1-.5-.3-.9-.4-.4-.2-.8-.4-1.2-.5.6-1.5 1.6-3.6 2.7-6.2 1.1-2.7 2.2-5.5 3.3-8.4.5-1.4 1-2.8 1.4-4.2-.2-.1-.4-.3-.6-.4-1.4-.8-2.5-1.7-3.4-2.8s-1.6-2.2-1.9-3.3c-.7-2.1-.5-3.9.5-5.6s2.8-2.6 5.5-2.7h.3c1 0 1.7.2 2.2.7.6.5 1.1 1.1 1.4 1.9.4 1.2.5 2.7.3 4.5-.2 1.7-.6 3.6-1.1 5.5zm-2.9-11c-2 .1-2.8 1.5-2.3 4.2.3 1.9 1.3 3.7 3 5.2.3-1.4.6-2.8 1-4.1.7-3.7.2-5.5-1.7-5.3z"/><path d="m443.3 78.4c-.3-.1-.7-.1-1.1-.2-.3-.1-.6-.2-1-.5 1.3-3 2.7-6.4 4.3-10.3.8-2.1 1.5-4.2 2.1-6.3-1-1.7-2-3.3-2.8-4.9-1.9-3.4-3.1-6.2-3.5-8.6s.8-4 3.7-4.8c.3-.1.6-.1.9-.1 1 0 2 .5 2.9 1.6 1.2 1.4 2 3.1 2.5 5.1.3 1.2.4 2.4.4 3.6.1 1.2-.1 2.5-.4 3.7-.1.1-.1.3-.1.4 1 1.2 2 2.5 3 3.9 1.4 1.9 2.7 3.9 4 6 1.6 2.5 3.1 5.1 4.4 7.9 1.2 2.7 2.1 5.4 2.6 8.2.6 3.8.8 7.2.6 10.1 1-.5 2.1-1.1 3.2-1.7 3.2-1.7 6.1-4 8.8-6.7 2.8-2.7 5-6.2 6.5-10.6.2-.1.5-.1 1.1 0 .5.1.8.3 1.1.6-1.9 4.8-4.2 8.7-7.1 11.6-2.9 3-5.9 5.5-9 7.3-1.7 1-3.5 1.9-5.1 2.7-.6 2.7-1.5 5-2.8 7-1 1.4-2 2.6-3.2 3.6s-2.4 1.7-3.6 2.2c-1.5.6-2.9 1-4.3 1-.7 0-1.4-.1-2-.3-1.9-.5-3.1-1.7-3.5-3.6-.5-2.3.4-4.2 2.6-5.5s5-2.6 8.5-4c1-.4 2-.8 3.1-1.2 0-.2 0-.4.1-.5.3-2.8.1-6.1-.7-10-.6-2.8-1.6-5.6-2.9-8.4s-2.8-5.5-4.4-8.2c-1-1.6-1.9-3.2-2.9-4.9-.6 1.6-1.2 3.3-1.8 4.9-1.7 4-3 7.3-4.2 9.9zm5.5-30.8c-.8-2.8-1.9-4-3.2-3.6-1.5.5-1.6 1.7-.5 3.8 1 1.8 2.4 4 4.3 6.6.3-2.2.1-4.5-.6-6.8zm1.7 53.9c-1.2.5-2 1.1-2.6 1.8-.6.6-.8 1.5-.7 2.4.3 1.7 1.8 2.4 4.5 1.9s4.9-2.4 6.7-5.8c.5-1 .9-2.2 1.3-3.6l-.4.1c-3.7 1.1-6.6 2.1-8.8 3.2z"/><path d="m490.4 51.6c-.4 1.6-.7 4.2-.9 7.9-.2 3.6-.2 7.4-.1 11.5 0 2.1.1 4.3.2 6.5.1 2.1.3 4.2.5 6.2.5 3.6 1 6.7 1.8 9.1.8 2.5 1.7 3.8 2.8 3.9 1.7.1 3.6-1.8 5.8-5.5 2.1-3.8 4-8.1 5.6-13.1.8-2.7 1.6-5.3 2.1-8.1.6-2.8.9-5.3 1.1-7.7.2-.6.4-1.1.7-1.5.3-.3.6-.6 1-.8 1-.5 2.2-.2 3.4.8 1.2.9 1.8 1.8 1.7 2.8-.3 1.8-.6 4.5-1 8-.5 3.6-.8 7.3-1.2 11.4l-.4 6.2c-.1 2.1-.2 4.1-.3 6-.1 3.5.1 6.5.4 8.9s.9 3.7 1.8 3.8c1.4.2 3.3-1.5 5.7-5 2.4-3.6 4.7-7.6 7-12.1 1.6-3 3-6 4.4-8.9 1.3-2.9 2.4-5.4 3.2-7.4.3.1.7.3 1.1.4.3.1.6.4 1 .7-.8 2-1.9 4.3-3.1 7-1.2 2.6-2.5 5.2-3.9 8-2.6 5-5.3 9.4-8.2 13.4-2.7 3.8-5.1 5.7-7.1 5.7h-.3c-.9-.1-1.7-.5-2.4-1-.7-.6-1.4-1.3-1.9-2.2-.7-1.2-1.3-2.7-1.8-4.5-.5-1.7-.8-3.6-1.1-5.5-.5-3.6-.7-7.1-.7-10.6.1-3.4.1-5.8 0-7-.1.8-.6 2.6-1.6 5.3-1 2.8-2.4 5.4-4 8-1 1.7-2.2 3.1-3.4 4.3s-2.5 1.7-3.8 1.6c-1.4-.1-2.6-.5-3.7-1.5-1.1-.8-2.1-2-2.9-3.4-1.2-2-2.1-4.4-2.7-7.3-.7-2.9-1.2-5.9-1.6-9-.5-3.8-.7-7.6-.7-11.3v-1.7c0-3 .1-5.6.2-7.8.1-1.4.1-2.6.2-3.6s.2-1.6.3-2c.9-1.1 2-1.7 3.4-1.7h.1c1.4 0 2.5.9 3.3 2.8z"/><path d="m545.9 54.2c1.7 1.1 3.8 1.9 6.2 2.3 2.4.5 5.2.5 8.4 0 1.2.1 1.6 1.5 1.4 4.3s-.7 6.1-1.7 10.1c-.5 2.2-1 4.5-1.6 6.8-.6 2.4-1.1 4.8-1.6 7.1-1.3 5.4-2.2 10.3-2.7 14.7s.1 6.8 1.9 7.3c1 .3 2 .2 3.1-.2 1-.4 2.1-1 3.2-1.8 2.1-1.6 4.2-3.9 6.3-6.8 2.1-2.8 4-5.8 5.8-8.9 1.9-3.2 3.5-6.2 4.9-9s2.3-4.9 2.9-6.3c.5-.1.8-.1 1.2 0 .3 0 .7.2 1.1.5-.4.8-.9 1.9-1.5 3.2s-1.2 2.7-1.9 4.2c-1.4 2.8-3.1 5.9-5 9.1-1.9 3.3-4 6.3-6.2 9-2.3 2.7-4.6 4.9-7 6.6-1.8 1.2-3.6 1.7-5.3 1.7-.6 0-1.3-.1-1.9-.2-1.2-.3-2.3-1-3.1-1.9-.9-1-1.6-2.3-2-3.8-1-2.8-1.4-6.2-1.3-10.4.1-4.1.6-8.4 1.4-12.9.6-3.6 1.5-7.2 2.4-10.8 1-3.6 1.9-6.7 2.9-9.5-3 .4-5.8.3-8.2-.2-1.2-.3-2.3-.5-3.3-.9-.9 2.9-2 5.9-3.4 9-1.7 4.1-3.1 7.3-4.2 9.6-.2-.1-.5-.3-.9-.4-.4-.2-.8-.4-1.2-.5.6-1.5 1.6-3.6 2.7-6.2 1.1-2.7 2.2-5.5 3.3-8.4.5-1.4 1-2.8 1.4-4.2-.2-.1-.4-.3-.6-.4-1.4-.8-2.5-1.7-3.4-2.8s-1.6-2.2-1.9-3.3c-.7-2.1-.5-3.9.5-5.6s2.8-2.6 5.5-2.7h.3c1 0 1.7.2 2.2.7.6.5 1.1 1.1 1.4 1.9.4 1.2.5 2.7.3 4.5-.2 1.7-.6 3.6-1.1 5.5zm-2.9-11c-2 .1-2.8 1.5-2.3 4.2.3 1.9 1.3 3.7 3 5.2.3-1.4.6-2.8 1-4.1.7-3.7.1-5.5-1.7-5.3z"/></g></svg>