<svg enable-background="new 0 0 100.4 100.4" viewBox="0 0 100.4 100.4" xmlns="http://www.w3.org/2000/svg"><g fill="#fff"><path d="m87.9 20.5c-.4-.3-.8-.4-1.3-.3l-36.4 8.9-36.4-8.9c-.4-.1-.9 0-1.3.3s-.6.7-.6 1.2v56.9c0 .7.5 1.3 1.1 1.5l36.8 9h.4s.2 0 .4 0l36.8-9c.7-.2 1.1-.8 1.1-1.5v-56.9c0-.5-.2-.9-.6-1.2zm-72.9 3.1 33.8 8.3v53.8l-33.8-8.3zm70.5 53.8-33.8 8.3v-53.8l33.8-8.3z"/><path d="m17.4 15.1 32.5 8h.4.4l32.5-8c.8-.2 1.3-1 1.1-1.8s-1-1.3-1.8-1.1l-32.3 7.8-32.2-7.9c-.8-.2-1.6.3-1.8 1.1s.4 1.7 1.2 1.9z"/></g></svg>