<svg enable-background="new 0 0 50 50" viewBox="0 0 50 50" xmlns="http://www.w3.org/2000/svg"><g fill="none"><circle cx="25" cy="25" r="24" stroke="#4a898b" stroke-linecap="round" stroke-miterlimit="10"/><path d="m0 0h50v50h-50z"/><path d="m29.9 35.5c-.1-1.6-.1-2.7-.1-4.2.7-.4 2-2.8 2.3-4.9.6 0 1.5-.6 1.7-2.8.1-1.2-.4-1.9-.8-2.1 1-2.8 2.9-11.5-3.5-12.4-.7-1.2-2.4-1.8-4.6-1.8-8.9.2-9.9 6.7-8 14.2-.3.2-.9.9-.8 2.1.3 2.2 1.2 2.8 1.7 2.8.2 2.1 1.6 4.5 2.3 4.9 0 1.5.1 2.6-.1 4.2-1.3 3.4-7.7 3.7-11.5 6.9 3.9 3.9 10.2 6.7 16.9 6.7s14.5-5.3 15.8-6.7c-3.5-3.2-10-3.5-11.3-6.9z" stroke="#4a898b" stroke-miterlimit="10"/></g></svg>