<?xml version="1.0" encoding="utf-8"?>
<!-- Generator: Adobe Illustrator 22.1.0, SVG Export Plug-In . SVG Version: 6.00 Build 0)  -->
<svg version="1.1" id="Capa_1" xmlns="http://www.w3.org/2000/svg" xmlns:xlink="http://www.w3.org/1999/xlink" x="0px" y="0px"
	 viewBox="0 0 52 52" style="enable-background:new 0 0 52 52;" xml:space="preserve">
<style type="text/css">
	.st0{fill:#4A898B;}
	.st1{fill:none;}
	.st2{font-family:'Superclarendon-Regular';}
	.st3{font-size:25px;}
</style>
<g>
	<path class="st0" d="M43.8,8.2c-4.3-4.3-10-6.7-16.1-6.7c0,0-0.1,0-0.1,0c-5.4,0-10.5,1.9-14.6,5.2V1c0-0.6-0.4-1-1-1s-1,0.4-1,1v8
		c0,0.1,0,0.3,0.1,0.4c0.1,0.2,0.3,0.4,0.5,0.5c0.1,0,0.3,0.1,0.4,0.1h9c0.6,0,1-0.4,1-1s-0.4-1-1-1h-6.3c3.7-2.9,8.2-4.5,12.9-4.5
		c0,0,0.1,0,0.1,0c5.6,0,10.8,2.2,14.7,6.1c7.8,7.8,8.1,20.4,0.8,28.7c-0.4,0.4-0.3,1,0.1,1.4c0.2,0.2,0.4,0.2,0.7,0.2
		c0.3,0,0.6-0.1,0.8-0.3C52.7,30.5,52.3,16.7,43.8,8.2z"/>
	<g>
		<path class="st0" d="M40.4,42.1C40.3,42,40.1,42,40,42h-9c-0.6,0-1,0.4-1,1s0.4,1,1,1h6.3c-3.7,2.9-8.2,4.5-12.9,4.5
			c-5.6,0-10.9-2.1-14.8-6.1C1.8,34.6,1.5,22,8.8,13.7c0.4-0.4,0.3-1-0.1-1.4c-0.4-0.4-1-0.3-1.4,0.1c-8,9.1-7.6,22.9,0.9,31.4
			c4.3,4.3,10,6.7,16.1,6.7c0,0,0.1,0,0.1,0c5.4,0,10.5-1.9,14.6-5.2V51c0,0.6,0.4,1,1,1s1-0.4,1-1v-8c0-0.1,0-0.3-0.1-0.4
			C40.8,42.4,40.6,42.2,40.4,42.1z"/>
	</g>
	<line class="st1" x1="8.7" y1="12.3" x2="8.2" y2="12.7"/>
	<line class="st1" x1="6.6" y1="13.2" x2="7.2" y2="13.6"/>
</g>
<rect x="15.3" y="14.8" class="st1" width="22.5" height="20.4"/>
<text transform="matrix(1 0 0 1 15.3125 34)" class="st0 st2 st3">€</text>
</svg>
