<?xml version="1.0" encoding="utf-8"?>
<!-- Generator: Adobe Illustrator 22.1.0, SVG Export Plug-In . SVG Version: 6.00 Build 0)  -->
<svg version="1.1" id="Calque_1" xmlns="http://www.w3.org/2000/svg" xmlns:xlink="http://www.w3.org/1999/xlink" x="0px" y="0px"
	 viewBox="0 0 32 32" style="enable-background:new 0 0 32 32;" xml:space="preserve">
<style type="text/css">
	.st0{fill:#4A898B;}
</style>
<g id="Whatsapp">
	<path class="st0" d="M16,31c-2.9,0-5.6-0.8-8.1-2.3l-5.3,1.7c-0.2,0.1-0.4,0-0.5-0.1C2,30.1,1.9,29.9,2,29.7l1.7-5.1
		C1.9,22.1,1,19.1,1,16c0-4.1,1.6-7.9,4.5-10.7c0.2-0.2,0.5-0.2,0.7,0c0.2,0.2,0.2,0.5,0,0.7C3.5,8.6,2,12.2,2,16
		c0,3,0.9,5.8,2.7,8.2c0.1,0.1,0.1,0.3,0.1,0.5l-1.5,4.5l4.6-1.5c0.1,0,0.3,0,0.4,0.1c2.3,1.5,4.9,2.3,7.7,2.3c7.7,0,14-6.3,14-14
		c0-7.7-6.3-14-14-14c0,0,0,0,0,0c-2.2,0-4.2,0.5-6.2,1.4c-0.2,0.1-0.5,0-0.7-0.2s0-0.5,0.2-0.7C11.5,1.5,13.7,1,16,1
		c8.3,0,15,6.7,15,15S24.3,31,16,31z"/>
	<g>
		<path class="st0" d="M20.6,24.5L20.6,24.5c-1,0-2.4-0.4-4.4-1.2c-2.6-1.1-5.2-3.4-7.4-6.4l-0.1-0.1c-0.7-1-1.8-2.8-1.8-4.7
			c0-2.2,1.1-3.4,1.6-3.8C9,7.8,9.6,7.5,10.4,7.5c0.2,0,0.4,0,0.5,0c0.6,0,1,0.2,1.4,1l0.4,0.9c0.4,0.9,0.9,2.1,0.9,2.2
			c0.1,0.2,0.3,0.7,0.1,1.2c-0.1,0.3-0.3,0.5-0.5,0.7c-0.1,0.2-0.2,0.3-0.3,0.4c-0.1,0.1-0.2,0.2-0.3,0.4c-0.2,0.2-0.2,0.2-0.1,0.3
			c0.4,0.6,1.2,1.8,2.3,2.8c1.4,1.3,2.6,1.7,3.1,2l0.1,0.1c0.1,0.1,0.3,0.1,0.5,0c0.2-0.3,0.6-0.7,0.9-1.2l0.2-0.3
			c0.3-0.5,0.8-0.6,1.1-0.6c0.2,0,0.4,0,0.5,0.1c0.5,0.2,2.9,1.4,2.9,1.4l0.2,0.1c0.4,0.2,0.6,0.3,0.8,0.6c0.2,0.4,0.1,1.4-0.2,2.4
			c-0.4,1.2-2,2.1-3.2,2.4C21.3,24.4,21,24.5,20.6,24.5z M10.4,8.5c-0.5,0-0.9,0.1-1.1,0.4c-0.5,0.5-1.3,1.4-1.3,3.2
			c0,1.2,0.6,2.7,1.6,4.1l0.1,0.2c2,2.9,4.5,5.1,6.9,6.1c1.9,0.8,3.2,1.1,4.1,1.1l0,0c0.3,0,0.5,0,0.7-0.1c1-0.2,2.2-0.9,2.5-1.7
			c0.3-0.9,0.3-1.5,0.3-1.6c0,0-0.2-0.1-0.3-0.1l-0.2-0.1c-0.7-0.4-2.5-1.2-2.8-1.3c-0.1,0-0.1,0-0.2,0c0,0-0.1,0-0.3,0.2L20,18.9
			c-0.4,0.5-0.7,1-1,1.3c-0.4,0.4-1,0.5-1.6,0.3l-0.1-0.1c-0.6-0.2-1.9-0.8-3.4-2.1c-1.2-1.1-2-2.4-2.5-3c-0.4-0.7,0-1.2,0.2-1.5
			c0.1-0.2,0.3-0.3,0.4-0.4c0.1-0.1,0.2-0.2,0.3-0.3c0.2-0.3,0.3-0.3,0.4-0.6c0-0.1,0-0.1-0.1-0.4c-0.1-0.2-0.6-1.3-1-2.3l-0.4-0.9
			c-0.2-0.4-0.2-0.4-0.5-0.4C10.7,8.5,10.5,8.5,10.4,8.5z"/>
	</g>
	<g>
		<circle class="st0" cx="7.5" cy="4" r="0.5"/>
	</g>
</g>
</svg>
