<?xml version="1.0" encoding="utf-8"?>
<!-- Generator: Adobe Illustrator 22.1.0, SVG Export Plug-In . SVG Version: 6.00 Build 0)  -->
<svg version="1.1" id="Calque_1" xmlns="http://www.w3.org/2000/svg" xmlns:xlink="http://www.w3.org/1999/xlink" x="0px" y="0px"
	 viewBox="0 0 370.2 370.2" style="enable-background:new 0 0 370.2 370.2;" xml:space="preserve">
<style type="text/css">
	.st0{fill:#4A898B;}
</style>
<path class="st0" d="M205.6,141.2c0,0-1.4-0.7-2.2,0.2c-13.9,14.4-35.6,37.2-41,39.7c-18.4,8.4-36.3-1.1-66.7,29.3l-75.8,75.8
	c-32.1,32.1-20.8,40.1,1.7,62.4c22.2,22.5,30.3,33.8,62.4,1.7l75.8-75.8c30.4-30.4,21.4-47.7,29.8-66.1c2.5-5.4,25.5-28.3,39-41.7
	c1.2-1.2,0-2.4,0-2.4L205.6,141.2z M131.9,280.2l-24.1,24.1c-1.7,1.7-4.4,1.7-6.1,0l-35.8-35.8c-1.7-1.7-1.7-4.4,0-6.1L90,238.2
	c1.7-1.7,4.4-1.7,6.1,0l35.8,35.8C133.6,275.7,133.6,278.5,131.9,280.2L131.9,280.2z"/>
<path class="st0" d="M368.6,55.6l-26.4-26.4c-0.1-0.1-0.1-0.1-0.2-0.2l-1-1c-0.1-0.1-0.1-0.1-0.2-0.2L314.6,1.5c-2-2-5.4-2-7.4,0
	l-17.3,17.3c-2,2-2,5.4,0,7.4c0,0,16.2,16.2,21.8,21.8c0.4,0.4,0.9,1.3,0.1,2.1c-3.3,3.2-10.9,10.9-10.9,10.9c-1,1-1.5,2.2-1.5,3.4
	c0,0.1,0.1,0.2-0.1,0.3s-0.2,0-0.4,0c-2.3-0.6-5.1-0.8-7.4,1.4c-3,3-1.1,7.3,0.4,10.6c0.5,1.1,1.3,2.8,1.4,3.7
	c-0.9-0.2-2.7-0.9-3.8-1.4c-3.4-1.5-7.6-3.4-10.6-0.4c-3,3-1.1,7.3,0.4,10.6c0.5,1.1,1.3,2.8,1.4,3.7c-0.9-0.2-2.7-0.9-3.7-1.4
	c-3.4-1.5-7.6-3.4-10.6-0.4c-1.9,1.9-1.9,4.1-1.6,6.1c0,0.1-0.2,0.2-0.4-0.1l-2.8-2.8c-1.7-1.7-4.3-1.8-5.8-0.3l-20.2,20.2
	c-1.5,1.5-1.4,4.1,0.3,5.8l14.1,14.1c1.7,1.7,4.3,1.8,5.8,0.3l20.2-20.2c1.5-1.5,1.4-4.1-0.3-5.8l-3.5-3.5c-0.4-0.4-0.4-0.8-0.3-1
	c0.4-2.4-0.3-4.6-0.7-6.2c-0.2-0.7-0.5-1.8-0.5-2.2c0.9,0.1,2.8,0.9,3.9,1.5c3.4,1.5,7.6,3.4,10.6,0.4c3-3,1.1-7.3-0.4-10.6
	c-0.5-1.1-1.3-2.8-1.4-3.8c0.9,0.2,2.7,0.9,3.7,1.4c3.4,1.5,7.6,3.4,10.6,0.4c3-3,1.1-7.3-0.4-10.6c-0.5-1.2-1.4-3.1-1.5-4
	c0.5-0.1,2.1,0.4,3,0.6c2.4,0.7,5.8,1.6,8.9-0.3c0.6-0.3,1-0.8,1.5-1.4l10.6-10.6c0,0,1.3-1.2,2.5,0c5.8,5.9,5.9,6.3,21.6,21.6
	c2,2,5.4,2,7.4,0L368.6,63C370.7,61,370.7,57.6,368.6,55.6L368.6,55.6z"/>
</svg>
