<svg enable-background="new 0 0 328.9 328.9" viewBox="0 0 328.9 328.9" xmlns="http://www.w3.org/2000/svg"><g fill="#4a898b"><path d="m104 220.4v-89.3h-20.6v-22.9h49.1v112.2z"/><path d="m239.6 137.2c0 9.8-5.3 18.4-14.1 23.2 12.3 5.1 20 15.8 20 28.3 0 20.2-17.9 33-45.9 33s-45.9-12.6-45.9-32.5c0-12.8 8.3-23.7 21.3-28.8-9.4-5.3-15.5-14.2-15.5-24 0-17.9 15.7-29.3 40-29.3 24.5.1 40.1 11.7 40.1 30.1zm-59.1 49.2c0 9.4 6.7 14.7 19 14.7s19.2-5.1 19.2-14.7c0-9.3-6.9-14.6-19.2-14.6s-19 5.3-19 14.6zm2.9-47.6c0 8 5.8 12.5 16.2 12.5s16.2-4.5 16.2-12.5c0-8.3-5.8-13-16.2-13-10.4.1-16.2 4.7-16.2 13z"/><path d="m292.9 120.9c4.7 14 7.1 28.6 7.1 43.5 0 74.8-60.8 135.6-135.6 135.6s-135.5-60.8-135.5-135.6 60.8-135.6 135.6-135.6c14.9 0 29.5 2.4 43.5 7.1v-30.1c-14.2-3.8-28.8-5.8-43.6-5.8-90.6 0-164.4 73.8-164.4 164.4s73.8 164.4 164.4 164.4 164.4-73.8 164.4-164.4c0-14.8-2-29.4-5.8-43.5z"/><path d="m284.7 44.1v-31.5h-22.7v31.5h-31.3v22.7h31.3v31.5h22.7v-31.5h31.5v-22.7z"/></g></svg>